<svg width="48" height="70" viewBox="0 0 48 70" fill="none" xmlns="http://www.w3.org/2000/svg">
<g clip-path="url(#clip0_192_58)">
<path d="M11.8413 70C18.3522 70 23.6364 64.7734 23.6364 58.3334V46.6667H11.8413C5.33037 46.6667 0.0461426 51.8934 0.0461426 58.3334C0.0461426 64.7734 5.33037 70 11.8413 70Z" fill="#0ACF83"/>
<path d="M0.0461426 35C0.0461426 28.56 5.33037 23.3333 11.8413 23.3333H23.6364V46.6666H11.8413C5.33037 46.6666 0.0461426 41.44 0.0461426 35Z" fill="#A259FF"/>
<path d="M0.0461426 11.6667C0.0461426 5.22667 5.33037 0 11.8413 0H23.6364V23.3333H11.8413C5.33037 23.3333 0.0461426 18.1067 0.0461426 11.6667Z" fill="#F24E1E"/>
<path d="M23.6365 0H35.4316C41.9425 0 47.2268 5.22667 47.2268 11.6667C47.2268 18.1067 41.9425 23.3333 35.4316 23.3333H23.6365V0Z" fill="#FF7262"/>
<path d="M47.2268 35C47.2268 41.44 41.9425 46.6666 35.4316 46.6666C28.9207 46.6666 23.6365 41.44 23.6365 35C23.6365 28.56 28.9207 23.3333 35.4316 23.3333C41.9425 23.3333 47.2268 28.56 47.2268 35Z" fill="#1ABCFE"/>
</g>
<defs>
<clipPath id="clip0_192_58">
<rect width="47.2727" height="70" fill="white"/>
</clipPath>
</defs>
</svg>
