<svg width="1440" height="1355" viewBox="0 0 1440 1355" fill="none" xmlns="http://www.w3.org/2000/svg">
<g filter="url(#filter0_f_822_1467)">
<path d="M1135.99 742.59C1080.84 768.376 949.846 809.034 897.163 784.643C844.48 760.252 811.104 646.275 819.893 596.246C828.682 546.217 890.882 505.476 949.896 484.469C1008.91 463.461 1127.62 445.958 1173.97 470.202C1220.33 494.446 1234.37 584.533 1228.03 629.931" fill="url(#paint0_linear_822_1467)"/>
<path d="M1346.5 684.144C1291.35 709.93 1160.35 750.588 1107.67 726.197C1054.99 701.806 1021.61 587.829 1030.4 537.8C1039.19 487.771 1101.39 447.03 1160.4 426.023C1219.42 405.015 1338.13 387.512 1384.48 411.756C1430.84 436 1444.87 526.087 1438.54 571.485" fill="url(#paint1_linear_822_1467)"/>
<path d="M466.681 712.852C412.685 734.602 339.379 703.307 284.832 680.927C230.286 658.546 142.396 624.182 139.404 578.568C136.411 532.953 212.487 429.738 266.878 407.24C321.268 384.741 408.756 419.712 465.744 443.577C522.733 467.442 608.652 505.549 608.808 550.428" fill="url(#paint2_linear_822_1467)"/>
<path d="M582.662 952.593C520.265 966.863 443.458 934.354 397.628 910.91C351.797 887.467 308.606 856.951 307.679 811.931C306.752 766.912 339.753 666.37 392.067 640.794C444.38 615.218 558.236 627.726 621.56 658.475C684.883 689.225 778.493 776.272 772.01 825.292" fill="url(#paint3_linear_822_1467)"/>
<path d="M986.97 1004.9C932.201 1030.91 819.404 1043.63 771.724 1022.04C724.044 1000.44 692.313 924.117 700.891 875.335C709.47 826.553 775.659 750.808 823.197 729.344C870.736 707.88 939.934 723.779 986.124 746.552C1032.31 769.326 1100.2 822.926 1100.34 865.984" fill="url(#paint4_linear_822_1467)"/>
<path d="M804.125 773.164C745.395 794.728 601.492 779.914 547.617 752.789C493.742 725.663 471.854 655.315 480.877 610.411C489.9 565.507 545.278 502.791 601.757 483.362C658.236 463.933 770.044 470.496 819.751 493.837C869.458 517.178 902.605 576.852 900 623.407" fill="url(#paint5_linear_822_1467)"/>
<path d="M1343.98 959.742C1285.25 981.306 1141.35 966.492 1087.47 939.366C1033.6 912.241 1011.71 841.893 1020.73 796.989C1029.76 752.084 1085.13 689.369 1141.61 669.94C1198.09 650.511 1309.9 657.074 1359.61 680.415C1409.31 703.756 1442.46 763.43 1439.86 809.984" fill="url(#paint6_linear_822_1467)"/>
<path d="M325.22 930.519C266.49 952.083 122.587 937.269 68.7124 910.143C14.8377 883.018 -7.0512 812.67 1.97211 767.766C10.9954 722.861 66.3733 660.146 122.852 640.717C179.331 621.288 291.139 627.851 340.846 651.192C390.554 674.533 423.7 734.207 421.095 780.761" fill="url(#paint7_linear_822_1467)"/>
</g>
<path d="M346.563 604.613C346.563 604.613 357.545 604.746 360.436 599.791C362.973 595.442 362.654 590.796 359.421 586.931C356.025 582.871 351.077 581.93 346.203 583.977C342.373 585.585 337.178 588.556 339.343 592.106C341.36 595.416 345.938 593.522 349.24 591.501C356.161 587.263 350.154 577.527 341.836 567.575C333.518 557.623 319.386 549.761 304.408 556.487C293.864 561.223 279.714 571.753 270.819 564.355C266.654 560.89 261.856 551.587 261.856 551.587" stroke="#0ACF83" stroke-width="3"/>
<path d="M572.702 1042.56C572.702 1042.56 573.176 1053.53 578.284 1056.14C582.766 1058.44 587.388 1057.86 591.068 1054.42C594.934 1050.81 595.6 1045.81 593.287 1041.06C591.47 1037.32 588.216 1032.3 584.79 1034.66C581.598 1036.86 583.741 1041.32 585.942 1044.51C590.556 1051.18 599.945 1044.65 609.422 1035.79C618.899 1026.94 625.968 1012.39 618.423 997.808C613.112 987.542 601.815 973.995 608.711 964.705C611.94 960.355 620.963 955.05 620.963 955.05" stroke="#232323" stroke-width="3"/>
<path d="M109 929C109 929 142.583 937.969 151.327 955.369C160.243 973.111 137.785 988.16 146.532 1005.99C154.758 1022.75 186 1033 186 1033" stroke="#7B61FF" stroke-width="3"/>
<path d="M665.205 602C665.205 602 685.703 596.567 691.041 586.027C696.483 575.279 682.775 566.163 688.114 555.364C693.135 545.208 712.205 539 712.205 539" stroke="#7B61FF" stroke-width="3"/>
<rect x="106.049" y="464.305" width="22.5117" height="22.5117" rx="11.2559" transform="rotate(-30 106.049 464.305)" fill="#71B8FF" stroke="#232323" stroke-width="3"/>
<rect x="731.994" y="939.549" width="22.5117" height="22.5117" rx="11.2559" transform="rotate(-30 731.994 939.549)" fill="#0ACF83" stroke="#232323" stroke-width="3"/>
<circle cx="695.705" cy="426.5" r="15" fill="#FF7262" stroke="#232323" stroke-width="3"/>
<circle cx="459.705" cy="467.5" r="10" fill="#D9D9D9" stroke="#232323" stroke-width="3"/>
<path d="M336.705 666.5C336.705 670.996 333.271 674.5 329.205 674.5C325.138 674.5 321.705 670.996 321.705 666.5C321.705 662.004 325.138 658.5 329.205 658.5C333.271 658.5 336.705 662.004 336.705 666.5Z" stroke="#FF7262" stroke-width="3"/>
<path d="M308.331 728.73C308.331 728.73 312.418 722.603 311.914 718.34C310.959 710.262 291.226 716.401 293.489 708.59C294.442 705.301 295.813 702.525 299.187 701.925C301.777 701.464 304.769 701.613 305.558 704.122C306.14 705.975 304.944 707.162 303.937 708.821C299.842 715.569 289.761 713.69 283.709 708.612C276.804 702.821 289.034 691.559 282.275 685.599C278.634 682.389 270.524 681.546 270.524 681.546" stroke="#7B61FF" stroke-width="3"/>
<path d="M631.657 561.668C631.657 561.668 627.942 556.1 628.4 552.225C629.268 544.883 647.203 550.463 645.146 543.363C644.28 540.374 643.034 537.851 639.967 537.305C637.613 536.886 634.894 537.022 634.177 539.303C633.648 540.986 634.735 542.065 635.65 543.574C639.372 549.706 648.535 547.998 654.035 543.384C660.31 538.12 649.195 527.884 655.339 522.467C658.647 519.55 666.018 518.784 666.018 518.784" stroke="#0ACF83" stroke-width="3"/>
<defs>
<filter id="filter0_f_822_1467" x="-400" y="0" width="2240" height="1433" filterUnits="userSpaceOnUse" color-interpolation-filters="sRGB">
<feFlood flood-opacity="0" result="BackgroundImageFix"/>
<feBlend mode="normal" in="SourceGraphic" in2="BackgroundImageFix" result="shape"/>
<feGaussianBlur stdDeviation="200" result="effect1_foregroundBlur_822_1467"/>
</filter>
<linearGradient id="paint0_linear_822_1467" x1="1023.98" y1="458.446" x2="1023.98" y2="792.149" gradientUnits="userSpaceOnUse">
<stop stop-color="#BD80FF"/>
<stop offset="1" stop-color="#FF80C1"/>
</linearGradient>
<linearGradient id="paint1_linear_822_1467" x1="1234.49" y1="400" x2="1234.49" y2="733.703" gradientUnits="userSpaceOnUse">
<stop stop-color="#BD80FF"/>
<stop offset="1" stop-color="#FF80C1"/>
</linearGradient>
<linearGradient id="paint2_linear_822_1467" x1="374.063" y1="400" x2="374.063" y2="720.203" gradientUnits="userSpaceOnUse">
<stop stop-color="#80FF86"/>
<stop offset="1" stop-color="#80F9FF"/>
</linearGradient>
<linearGradient id="paint3_linear_822_1467" x1="539.995" y1="627.04" x2="539.995" y2="956.089" gradientUnits="userSpaceOnUse">
<stop stop-color="#9580FF"/>
<stop offset="1" stop-color="#FF80EA"/>
</linearGradient>
<linearGradient id="paint4_linear_822_1467" x1="899.916" y1="719.205" x2="899.916" y2="1033" gradientUnits="userSpaceOnUse">
<stop stop-color="#AEFF80"/>
<stop offset="1" stop-color="#80FFD0"/>
</linearGradient>
<linearGradient id="paint5_linear_822_1467" x1="689.524" y1="471.934" x2="689.524" y2="783.494" gradientUnits="userSpaceOnUse">
<stop stop-color="#80FFFD"/>
<stop offset="1" stop-color="#8082FF"/>
</linearGradient>
<linearGradient id="paint6_linear_822_1467" x1="1229.38" y1="658.511" x2="1229.38" y2="970.071" gradientUnits="userSpaceOnUse">
<stop stop-color="#80FFFD"/>
<stop offset="1" stop-color="#8082FF"/>
</linearGradient>
<linearGradient id="paint7_linear_822_1467" x1="210.619" y1="629.288" x2="210.619" y2="940.848" gradientUnits="userSpaceOnUse">
<stop stop-color="#80FFFD"/>
<stop offset="1" stop-color="#8082FF"/>
</linearGradient>
</defs>
</svg>
