<svg width="1440" height="900" viewBox="0 0 1440 900" fill="none" xmlns="http://www.w3.org/2000/svg">
<g clip-path="url(#clip0_873_3192)">
<g filter="url(#filter0_f_873_3192)">
<path d="M1135.99 487.095C1080.84 523.757 949.846 581.564 897.163 546.886C844.48 512.207 811.104 350.155 819.893 279.023C828.682 207.892 890.882 149.966 949.896 120.098C1008.91 90.2295 1127.62 65.3434 1173.97 99.8131C1220.33 134.283 1234.37 262.369 1228.03 326.916" fill="url(#paint0_linear_873_3192)"/>
<path d="M1346.5 403.997C1291.35 440.658 1160.35 498.466 1107.67 463.787C1054.99 429.108 1021.61 267.056 1030.4 195.925C1039.19 124.793 1101.39 66.8676 1160.4 36.9992C1219.42 7.13086 1338.13 -17.7553 1384.48 16.7144C1430.84 51.1841 1444.87 179.27 1438.54 243.817" fill="url(#paint1_linear_873_3192)"/>
<path d="M466.681 444.813C412.685 475.737 339.379 431.243 284.832 399.422C230.286 367.601 142.396 318.742 139.404 253.888C136.411 189.033 212.487 42.2816 266.878 10.2933C321.268 -21.695 408.756 28.0267 465.744 61.9577C522.733 95.8886 608.652 150.07 608.808 213.879" fill="url(#paint2_linear_873_3192)"/>
<path d="M582.662 785.678C520.265 805.966 443.458 759.745 397.628 726.413C351.797 693.081 308.606 649.693 307.679 585.685C306.752 521.676 339.753 378.725 392.067 342.361C444.38 305.997 558.236 323.781 621.56 367.501C684.883 411.221 778.493 534.985 772.01 604.681" fill="url(#paint3_linear_873_3192)"/>
<path d="M986.97 860.045C932.201 897.024 819.404 915.112 771.724 884.41C724.044 853.708 692.313 745.19 700.891 675.832C709.47 606.474 775.659 498.779 823.197 468.262C870.736 437.744 939.934 460.35 986.124 492.729C1032.31 525.108 1100.2 601.317 1100.34 662.536" fill="url(#paint4_linear_873_3192)"/>
<path d="M804.125 530.565C745.395 561.225 601.492 540.162 547.617 501.595C493.742 463.028 471.854 363.008 480.877 299.163C489.9 235.317 545.278 146.149 601.757 118.524C658.236 90.9003 770.044 100.232 819.751 133.418C869.458 166.604 902.605 251.448 900 317.64" fill="url(#paint5_linear_873_3192)"/>
<path d="M1343.98 795.842C1285.25 826.501 1141.35 805.439 1087.47 766.872C1033.6 728.305 1011.71 628.284 1020.73 564.439C1029.76 500.594 1085.13 411.425 1141.61 383.801C1198.09 356.177 1309.9 365.508 1359.61 398.694C1409.31 431.88 1442.46 516.725 1439.86 582.916" fill="url(#paint6_linear_873_3192)"/>
<path d="M325.22 754.292C266.49 784.952 122.587 763.89 68.7124 725.322C14.8377 686.755 -7.0512 586.735 1.97211 522.89C10.9954 459.044 66.3733 369.876 122.852 342.252C179.331 314.627 291.139 323.959 340.846 357.145C390.554 390.331 423.7 475.176 421.095 541.367" fill="url(#paint7_linear_873_3192)"/>
</g>
</g>
<defs>
<filter id="filter0_f_873_3192" x="-400" y="-400" width="2240" height="1700" filterUnits="userSpaceOnUse" color-interpolation-filters="sRGB">
<feFlood flood-opacity="0" result="BackgroundImageFix"/>
<feBlend mode="normal" in="SourceGraphic" in2="BackgroundImageFix" result="shape"/>
<feGaussianBlur stdDeviation="200" result="effect1_foregroundBlur_873_3192"/>
</filter>
<linearGradient id="paint0_linear_873_3192" x1="1023.98" y1="83.0986" x2="1023.98" y2="557.558" gradientUnits="userSpaceOnUse">
<stop stop-color="#BD80FF"/>
<stop offset="1" stop-color="#FF80C1"/>
</linearGradient>
<linearGradient id="paint1_linear_873_3192" x1="1234.49" y1="0" x2="1234.49" y2="474.459" gradientUnits="userSpaceOnUse">
<stop stop-color="#BD80FF"/>
<stop offset="1" stop-color="#FF80C1"/>
</linearGradient>
<linearGradient id="paint2_linear_873_3192" x1="374.063" y1="0" x2="374.063" y2="455.264" gradientUnits="userSpaceOnUse">
<stop stop-color="#80FF86"/>
<stop offset="1" stop-color="#80F9FF"/>
</linearGradient>
<linearGradient id="paint3_linear_873_3192" x1="539.995" y1="322.806" x2="539.995" y2="790.648" gradientUnits="userSpaceOnUse">
<stop stop-color="#9580FF"/>
<stop offset="1" stop-color="#FF80EA"/>
</linearGradient>
<linearGradient id="paint4_linear_873_3192" x1="899.916" y1="453.846" x2="899.916" y2="900" gradientUnits="userSpaceOnUse">
<stop stop-color="#AEFF80"/>
<stop offset="1" stop-color="#80FFD0"/>
</linearGradient>
<linearGradient id="paint5_linear_873_3192" x1="689.524" y1="102.275" x2="689.524" y2="545.251" gradientUnits="userSpaceOnUse">
<stop stop-color="#80FFFD"/>
<stop offset="1" stop-color="#8082FF"/>
</linearGradient>
<linearGradient id="paint6_linear_873_3192" x1="1229.38" y1="367.552" x2="1229.38" y2="810.528" gradientUnits="userSpaceOnUse">
<stop stop-color="#80FFFD"/>
<stop offset="1" stop-color="#8082FF"/>
</linearGradient>
<linearGradient id="paint7_linear_873_3192" x1="210.619" y1="326.002" x2="210.619" y2="768.979" gradientUnits="userSpaceOnUse">
<stop stop-color="#80FFFD"/>
<stop offset="1" stop-color="#8082FF"/>
</linearGradient>
<clipPath id="clip0_873_3192">
<rect width="1440" height="900" fill="white"/>
</clipPath>
</defs>
</svg>
