<svg width="700" height="120" viewBox="0 0 700 120" fill="none" xmlns="http://www.w3.org/2000/svg">
<path d="M337 60L317 14L295 60L317 106L337 60Z" stroke="url(#paint0_linear_23_83)" stroke-width="3"/>
<g filter="url(#filter0_f_23_83)">
<path d="M337 60L317 14L295 60L317 106L337 60Z" stroke="url(#paint1_linear_23_83)" stroke-width="3"/>
</g>
<path d="M323 60L303 14L281 60L303 106L323 60Z" stroke="url(#paint2_linear_23_83)" stroke-width="10"/>
<path d="M346.3 95V25H354.8V95H346.3ZM353.8 95V87.3H387.9V95H353.8ZM353.8 62.9V55.3H384.8V62.9H353.8ZM353.8 32.7V25H387.7V32.7H353.8ZM427.88 96.2C424.013 96.2 420.58 95.8 417.58 95C414.58 94.1333 411.98 92.9667 409.78 91.5C407.58 89.9667 405.78 88.3 404.38 86.5C402.98 84.6333 401.946 82.6667 401.28 80.6L409.38 77.8C410.38 80.7333 412.38 83.3 415.38 85.5C418.446 87.6333 422.18 88.7 426.58 88.7C431.98 88.7 436.213 87.6333 439.28 85.5C442.346 83.3667 443.88 80.5333 443.88 77C443.88 73.7333 442.513 71.1 439.78 69.1C437.046 67.0333 433.446 65.4333 428.98 64.3L421.28 62.3C418.146 61.5 415.246 60.3333 412.58 58.8C409.98 57.2 407.88 55.2 406.28 52.8C404.746 50.3333 403.98 47.4 403.98 44C403.98 37.6667 406.013 32.7333 410.08 29.2C414.213 25.6 420.146 23.8 427.88 23.8C432.48 23.8 436.446 24.5667 439.78 26.1C443.113 27.5667 445.813 29.4667 447.88 31.8C450.013 34.0667 451.513 36.5333 452.38 39.2L444.38 42C443.113 38.6667 440.98 36.0667 437.98 34.2C434.98 32.2667 431.346 31.3 427.08 31.3C422.613 31.3 419.046 32.4 416.38 34.6C413.78 36.7333 412.48 39.6667 412.48 43.4C412.48 46.6 413.513 49.0667 415.58 50.8C417.646 52.4667 420.346 53.7 423.68 54.5L431.38 56.4C438.18 58 443.38 60.6667 446.98 64.4C450.646 68.0667 452.48 72.0333 452.48 76.3C452.48 79.9667 451.546 83.3333 449.68 86.4C447.813 89.4 445.046 91.8 441.38 93.6C437.78 95.3333 433.28 96.2 427.88 96.2ZM466.905 95V25H475.405V95H466.905ZM525.754 96.2C518.621 96.2 512.321 94.6667 506.854 91.6C501.387 88.4667 497.087 84.2 493.954 78.8C490.887 73.3333 489.354 67.1 489.354 60.1C489.354 52.9667 490.887 46.7 493.954 41.3C497.087 35.8333 501.387 31.5667 506.854 28.5C512.321 25.3667 518.621 23.8 525.754 23.8C529.487 23.8 533.121 24.4333 536.654 25.7C540.187 26.9 543.421 28.5667 546.354 30.7C549.287 32.8333 551.654 35.2667 553.454 38L546.754 42.6C545.421 40.4667 543.621 38.5667 541.354 36.9C539.087 35.1667 536.587 33.8333 533.854 32.9C531.187 31.9667 528.487 31.5 525.754 31.5C520.354 31.5 515.554 32.7333 511.354 35.2C507.154 37.6 503.854 40.9333 501.454 45.2C499.054 49.4667 497.854 54.4333 497.854 60.1C497.854 65.5667 499.021 70.4667 501.354 74.8C503.754 79.0667 507.054 82.4333 511.254 84.9C515.521 87.3667 520.354 88.6 525.754 88.6C530.287 88.6 534.287 87.6667 537.754 85.8C541.287 83.8667 544.054 81.2333 546.054 77.9C548.054 74.5 549.054 70.6 549.054 66.2L557.154 65.6C557.154 71.7333 555.821 77.1 553.154 81.7C550.487 86.2333 546.787 89.8 542.054 92.4C537.321 94.9333 531.887 96.2 525.754 96.2ZM531.854 66.6V59.3H557.154V65.9L553.154 66.6H531.854ZM620.33 95L572.03 29.7L578.63 25L626.93 90.2L620.33 95ZM570.03 95V25H578.63L578.53 31.7V95H570.03ZM620.33 95V25H628.83V95H620.33ZM669.872 96.2C666.005 96.2 662.572 95.8 659.572 95C656.572 94.1333 653.972 92.9667 651.772 91.5C649.572 89.9667 647.772 88.3 646.372 86.5C644.972 84.6333 643.939 82.6667 643.272 80.6L651.372 77.8C652.372 80.7333 654.372 83.3 657.372 85.5C660.439 87.6333 664.172 88.7 668.572 88.7C673.972 88.7 678.205 87.6333 681.272 85.5C684.339 83.3667 685.872 80.5333 685.872 77C685.872 73.7333 684.505 71.1 681.772 69.1C679.039 67.0333 675.439 65.4333 670.972 64.3L663.272 62.3C660.139 61.5 657.239 60.3333 654.572 58.8C651.972 57.2 649.872 55.2 648.272 52.8C646.739 50.3333 645.972 47.4 645.972 44C645.972 37.6667 648.005 32.7333 652.072 29.2C656.205 25.6 662.139 23.8 669.872 23.8C674.472 23.8 678.439 24.5667 681.772 26.1C685.105 27.5667 687.805 29.4667 689.872 31.8C692.005 34.0667 693.505 36.5333 694.372 39.2L686.372 42C685.105 38.6667 682.972 36.0667 679.972 34.2C676.972 32.2667 673.339 31.3 669.072 31.3C664.605 31.3 661.039 32.4 658.372 34.6C655.772 36.7333 654.472 39.6667 654.472 43.4C654.472 46.6 655.505 49.0667 657.572 50.8C659.639 52.4667 662.339 53.7 665.672 54.5L673.372 56.4C680.172 58 685.372 60.6667 688.972 64.4C692.639 68.0667 694.472 72.0333 694.472 76.3C694.472 79.9667 693.539 83.3333 691.672 86.4C689.805 89.4 687.039 91.8 683.372 93.6C679.772 95.3333 675.272 96.2 669.872 96.2Z" fill="#232323"/>
<path d="M17.3 69.3V61.6H34.3C37.9667 61.6 40.9667 60.2667 43.3 57.6C45.7 54.8667 46.9 51.4 46.9 47.2C46.9 44.3333 46.2667 41.8 45 39.6C43.7333 37.4 41.9667 35.7 39.7 34.5C37.5 33.2333 34.9333 32.6333 32 32.7H17.3V25L32.1 24.9C36.6333 24.9 40.6333 25.8667 44.1 27.8C47.6333 29.6667 50.3667 32.2667 52.3 35.6C54.3 38.9333 55.3 42.8 55.3 47.2C55.3 51.4667 54.4 55.2667 52.6 58.6C50.8 61.9333 48.3333 64.5667 45.2 66.5C42.0667 68.3667 38.4333 69.3 34.3 69.3H17.3ZM9.3 95V25H17.8V95H9.3ZM67.2102 95V25H75.7102V95H67.2102ZM74.7102 95V87.3H108.81V95H74.7102ZM74.7102 62.9V55.3H105.71V62.9H74.7102ZM74.7102 32.7V25H108.61V32.7H74.7102ZM134.39 67.5V59.7H150.39C152.923 59.7 155.19 59.1333 157.19 58C159.19 56.8 160.79 55.2 161.99 53.2C163.257 51.1333 163.89 48.8 163.89 46.2C163.89 42.2 162.49 38.9667 159.69 36.5C156.957 33.9667 153.39 32.7 148.99 32.7H134.39V25L149.19 24.9C153.723 24.8333 157.723 25.7333 161.19 27.6C164.723 29.4 167.457 31.9333 169.39 35.2C171.39 38.4 172.39 42.0667 172.39 46.2C172.39 50.3333 171.323 54 169.19 57.2C167.057 60.4 164.157 62.9333 160.49 64.8C156.823 66.6 152.69 67.5 148.09 67.5H134.39ZM126.39 95V25H134.89V95H126.39ZM165.89 95L149.09 66.3L155.79 61.9L175.19 95H165.89ZM214.788 96.5C209.521 96.5 204.854 95.4 200.788 93.2C196.788 90.9333 193.654 87.8333 191.388 83.9C189.121 79.9 187.988 75.3 187.988 70.1H196.488C196.488 73.7667 197.254 77.0333 198.788 79.9C200.388 82.7 202.588 84.9 205.387 86.5C208.188 88.0333 211.388 88.8 214.988 88.8C218.654 88.8 221.888 88.0333 224.688 86.5C227.554 84.9 229.754 82.7 231.288 79.9C232.888 77.0333 233.688 73.7667 233.688 70.1H242.088C242.088 75.3 240.954 79.9 238.688 83.9C236.421 87.8333 233.221 90.9333 229.088 93.2C224.954 95.4 220.188 96.5 214.788 96.5ZM187.988 70.1V25H196.488V70.1H187.988ZM233.688 70.1V25H242.088V70.1H233.688Z" fill="#232323"/>
<defs>
<filter id="filter0_f_23_83" x="285.337" y="2.38745" width="61.2984" height="115.225" filterUnits="userSpaceOnUse" color-interpolation-filters="sRGB">
<feFlood flood-opacity="0" result="BackgroundImageFix"/>
<feBlend mode="normal" in="SourceGraphic" in2="BackgroundImageFix" result="shape"/>
<feGaussianBlur stdDeviation="4" result="effect1_foregroundBlur_23_83"/>
</filter>
<linearGradient id="paint0_linear_23_83" x1="316" y1="14" x2="316" y2="106" gradientUnits="userSpaceOnUse">
<stop stop-color="#202020"/>
<stop offset="1" stop-color="#060606"/>
</linearGradient>
<linearGradient id="paint1_linear_23_83" x1="316" y1="14" x2="316" y2="106" gradientUnits="userSpaceOnUse">
<stop stop-color="#202020"/>
<stop offset="1" stop-color="#060606"/>
</linearGradient>
<linearGradient id="paint2_linear_23_83" x1="302" y1="14" x2="302" y2="106" gradientUnits="userSpaceOnUse">
<stop stop-color="#202020"/>
<stop offset="1" stop-color="#060606"/>
</linearGradient>
</defs>
</svg>
