<svg width="450" height="450" viewBox="0 0 450 450" fill="none" xmlns="http://www.w3.org/2000/svg">
<g clip-path="url(#clip0_192_65)">
<path d="M35.1738 398.163C35.1738 398.163 65.557 427.94 137.464 420.689C209.371 413.438 218.326 404.505 263.184 424.44C269.571 427.279 276.452 429.126 283.364 430.495C291.459 432.099 299.706 433.029 307.961 433.544C316.832 434.084 325.724 434.177 334.604 433.824C343.409 433.488 352.202 432.754 360.922 431.571C368.882 430.491 376.801 429.046 384.546 427.019C390.918 425.352 397.257 423.311 403.105 420.406C407.289 418.328 411.568 415.703 414.228 411.968C415.799 409.762 416.752 406.986 416.168 404.342C415.689 402.172 414.077 400.115 412.977 398.163H35.1738Z" fill="white" stroke="#1A1A1A" stroke-width="4.52071" stroke-linecap="round" stroke-linejoin="round"/>
<path d="M238.37 397.839H441.932C442.235 394.266 444.09 368.061 426.946 353.744C407.659 337.636 370.229 341.504 345.251 370.663C309.624 379.721 273.997 388.78 238.37 397.839Z" stroke="#1A1A1A" stroke-width="6.78107" stroke-linecap="round" stroke-linejoin="round"/>
<path d="M34.3581 398.164H412.662C407.082 387.049 397.107 370.333 380.155 354.322C370.05 344.776 334.528 312.255 280.75 311.921C243.692 311.692 216.102 326.859 203.488 335.006C191.149 323.936 173.121 322.08 159.203 330.295C146.309 337.905 139.199 352.828 141.301 367.984C133.177 360.678 116.348 347.707 91.8339 343.486C76.9531 340.924 54.5958 337.074 40.9537 351.495C25.0809 368.274 33.7558 396.31 34.3581 398.164Z" fill="white" stroke="#1A1A1A" stroke-width="4.52071" stroke-linecap="round" stroke-linejoin="round"/>
<path d="M326.115 29.5705V38.2278H78.4282V29.5705C78.4281 28.2946 78.6792 27.0313 79.1674 25.8526C79.6555 24.6739 80.3711 23.6028 81.2732 22.7007C82.1754 21.7986 83.2464 21.083 84.4251 20.5948C85.6038 20.1067 86.8672 19.8555 88.143 19.8557H316.397C317.673 19.8552 318.936 20.1061 320.115 20.5941C321.295 21.0821 322.366 21.7976 323.268 22.6997C324.171 23.6019 324.887 24.673 325.375 25.8519C325.863 27.0308 326.115 28.2944 326.115 29.5705Z" fill="#1C0311" stroke="#1A1A1A" stroke-width="2.26036" stroke-linecap="round" stroke-linejoin="round"/>
<path d="M326.115 38.2278V155.714C326.115 156.99 325.863 158.253 325.375 159.432C324.887 160.611 324.171 161.682 323.268 162.584C322.366 163.486 321.295 164.202 320.115 164.69C318.936 165.178 317.673 165.429 316.397 165.428H88.143C86.8672 165.428 85.6038 165.177 84.4251 164.689C83.2464 164.201 82.1754 163.485 81.2733 162.583C80.3711 161.681 79.6556 160.61 79.1674 159.431C78.6792 158.253 78.4281 156.989 78.4282 155.714V38.2278H326.115Z" fill="white" stroke="#1A1A1A" stroke-width="4.52071" stroke-linecap="round" stroke-linejoin="round"/>
<path d="M334.948 15.9683H64.647V25.5083H334.948V15.9683Z" fill="white" stroke="#1A1A1A" stroke-width="4.52071" stroke-linecap="round" stroke-linejoin="round"/>
<path d="M78.427 58.0151H326.115" stroke="#1A1A1A" stroke-width="4.52071" stroke-linecap="round" stroke-linejoin="round" stroke-dasharray="27.12 27.12"/>
<path d="M239.488 68.9685H92.9138V97.2353H239.488V68.9685Z" stroke="#1A1A1A" stroke-width="4.52071" stroke-linecap="round" stroke-linejoin="round" stroke-dasharray="27.12 27.12"/>
<path d="M239.488 104.655H92.9138V155.536H239.488V104.655Z" stroke="#1A1A1A" stroke-width="4.52071" stroke-linecap="round" stroke-linejoin="round" stroke-dasharray="27.12 27.12"/>
<path d="M257.411 39.6417V224.982" stroke="#1A1A1A" stroke-width="4.52071" stroke-linecap="round" stroke-linejoin="round" stroke-dasharray="27.12 27.12"/>
<path d="M261.572 54.8351H253.328V61.9018H261.572V54.8351Z" fill="#1C0311" stroke="#1A1A1A" stroke-width="2.26036" stroke-linecap="round" stroke-linejoin="round"/>
<path d="M16.8289 398.163H444.6" stroke="#1A1A1A" stroke-width="6.78107" stroke-linecap="round" stroke-linejoin="round"/>
<path d="M365.469 385.742L369.698 397.839H373.821L378.65 385.742H365.469Z" fill="#1C0311" stroke="#1A1A1A" stroke-width="2.26036" stroke-linecap="round" stroke-linejoin="round"/>
<path d="M310.888 385.742L315.117 397.839H319.239L324.068 385.742H310.888Z" fill="#1C0311" stroke="#1A1A1A" stroke-width="2.26036" stroke-linecap="round" stroke-linejoin="round"/>
<path d="M342.839 313.669C342.839 313.669 377.231 306.722 390.893 320.384C404.555 334.046 402.2 363.221 400.786 370.399C399.373 377.578 397.724 386.558 383.12 387.393C368.515 388.229 327.057 392.397 305.268 384.061C291.017 368.779 288.504 322.018 288.504 322.018C288.504 322.018 297.77 309.056 317.87 311.903C337.971 314.749 342.839 313.669 342.839 313.669Z" fill="white" stroke="#1A1A1A" stroke-width="4.52071" stroke-linecap="round" stroke-linejoin="round"/>
<path d="M349.635 313.343C349.635 313.343 359.564 316.927 360.271 322.418Z" fill="white"/>
<path d="M349.635 313.343C349.635 313.343 359.564 316.927 360.271 322.418" stroke="#1A1A1A" stroke-width="4.52071" stroke-linecap="round" stroke-linejoin="round"/>
<path d="M327.293 316.332C327.293 316.332 322.699 318.184 322.582 323.047Z" fill="white"/>
<path d="M327.293 316.332C327.293 316.332 322.699 318.184 322.582 323.047" stroke="#1A1A1A" stroke-width="4.52071" stroke-linecap="round" stroke-linejoin="round"/>
<path d="M293.726 323.047C293.726 323.394 304.094 330.753 318.342 327.215C332.589 323.677 341.073 328.951 343.428 330.804C345.784 332.656 373.933 336.014 381.589 329.993L389.244 323.973" fill="white"/>
<path d="M293.726 323.047C293.726 323.394 304.094 330.753 318.342 327.215C332.589 323.677 341.073 328.951 343.428 330.804C345.784 332.656 373.933 336.014 381.589 329.993L389.244 323.973" stroke="#1A1A1A" stroke-width="4.52071" stroke-linecap="round" stroke-linejoin="round"/>
<path d="M359.013 206.769L348.964 201.902C348.964 201.902 342.319 196.839 335.992 192.074C336.373 191.652 336.732 191.211 337.069 190.753C331.428 186.051 329.584 179.036 328.996 175.047C326.72 172.678 327.919 168.062 329.353 164.606C332.591 164.487 335.126 163.191 334.713 160.128C334.3 157.068 331.24 156.536 330.12 157.419C329 156.183 329.647 155.066 330.708 151.884C325.632 151.104 324.39 145.738 324.089 143.415C323.802 143.256 323.643 143.17 323.643 143.17C323.643 143.17 320.345 142.463 316.575 147.172C315.68 148.292 314.447 149.888 313.142 151.735C311.672 150.056 309.507 146.448 312.845 142.149C317.477 136.182 324.387 139.559 325.252 140.186C331.689 139.241 342.369 140.656 345.194 156.361C348.023 172.063 357.288 182.115 363.256 186.51C369.223 190.908 367.495 202.529 359.013 206.769Z" fill="#1C0311" stroke="#1A1A1A" stroke-width="2.26036" stroke-linecap="round" stroke-linejoin="round"/>
<path d="M305.268 197.936C305.268 197.936 285.835 212.968 274.999 231.775C272.879 217.84 265.577 185.098 263.221 186.276C258.039 190.987 254.035 190.045 253.328 192.4C252.621 194.756 252.621 249.405 262.515 252.467C272.408 255.529 307.506 253.881 307.506 253.881L311.083 239.512" fill="#54CAFA"/>
<path d="M305.268 197.936C305.268 197.936 285.835 212.968 274.999 231.775C272.879 217.84 265.577 185.098 263.221 186.276C258.039 190.987 254.035 190.045 253.328 192.4C252.621 194.756 252.621 249.405 262.515 252.467C272.408 255.529 307.506 253.881 307.506 253.881L311.083 239.512" stroke="#1A1A1A" stroke-width="4.52071" stroke-linecap="round" stroke-linejoin="round"/>
<path d="M254.223 193.129C254.223 193.129 254.163 194.759 257.728 194.366C261.293 193.973 264.103 190.62 263.74 188.142C263.378 185.665 260.991 185.181 259.329 185.725C257.668 186.269 253.408 189.173 254.223 193.129Z" fill="#1C0311" stroke="#1A1A1A" stroke-width="2.26036" stroke-linecap="round" stroke-linejoin="round"/>
<path d="M305.056 378.398C304.25 376.895 303.659 375.899 303.659 375.899C303.659 375.899 291.331 377.626 290.813 377.862C290.547 377.983 290.752 379.28 290.93 380.726C295.414 382.819 301.329 381.439 305.056 378.398Z" fill="#1C0311" stroke="#1A1A1A" stroke-width="2.26036" stroke-linecap="round" stroke-linejoin="round"/>
<path d="M305.056 378.398C301.329 381.439 295.414 382.819 290.93 380.726C291.099 382.102 291.245 383.614 290.938 384.379C286.777 385.4 276.098 391.524 273.115 393.409C270.646 394.968 266.728 398.301 282.419 398.159C285.693 398.129 309.704 394.822 309.547 390.189C309.441 387.043 306.763 381.581 305.056 378.398Z" fill="white" stroke="#1A1A1A" stroke-width="4.52071" stroke-linecap="round" stroke-linejoin="round"/>
<path d="M216.813 380.94C220.877 383.172 225.475 384.251 230.108 384.059C229.829 382.709 229.481 381.375 229.065 380.06C229.065 380.06 222.156 377.312 218.701 377.548C218.544 378.203 217.692 379.297 216.394 380.551C216.511 380.703 216.652 380.835 216.813 380.94V380.94Z" fill="#1C0311" stroke="#1A1A1A" stroke-width="2.26036" stroke-linecap="round" stroke-linejoin="round"/>
<path d="M230.108 384.059C225.475 384.251 220.878 383.172 216.813 380.939C216.652 380.835 216.511 380.703 216.394 380.551C213.805 383.051 209.432 386.186 205.196 387.755C198.836 390.111 192.397 394.665 194.988 397.727C197.579 400.789 206.452 400.083 211.713 398.748C216.974 397.413 222.784 397.178 227.495 396C232.206 394.822 230.636 387.677 230.322 385.321C230.267 384.911 230.193 384.484 230.108 384.059Z" fill="white" stroke="#1A1A1A" stroke-width="4.52071" stroke-linecap="round" stroke-linejoin="round"/>
<path d="M306.093 264.088C306.093 264.088 265.106 260.79 249.716 281.362C234.326 301.934 220.507 343.706 217.052 376.213C216.267 380.453 227.26 381.709 229.301 381.238C234.483 377.312 260.081 328.159 268.09 319.365C276.099 310.571 286.542 285.563 286.542 285.563L320.367 280.616L315.519 263.894" fill="white"/>
<path d="M306.093 264.088C306.093 264.088 265.106 260.79 249.716 281.362C234.326 301.934 220.507 343.706 217.052 376.213C216.267 380.453 227.26 381.709 229.301 381.238C234.483 377.312 260.081 328.159 268.09 319.365C276.099 310.571 286.542 285.563 286.542 285.563L320.367 280.616L315.519 263.894" stroke="#1A1A1A" stroke-width="4.52071" stroke-linecap="round" stroke-linejoin="round"/>
<path d="M369.222 274.138C369.222 274.138 381.942 297.066 353.518 311.67C325.094 326.275 284.893 298.322 284.893 298.322C284.893 298.322 307.506 343.863 305.268 376.134C303.502 379.197 290.31 380.139 288.662 378.255C287.013 376.37 248.381 311.592 261.808 288.978C275.235 266.365 312.217 265.187 312.217 265.187L369.222 274.138Z" fill="white" stroke="#1A1A1A" stroke-width="4.52071" stroke-linecap="round" stroke-linejoin="round"/>
<path d="M306.894 267.934C306.894 267.934 335.08 280.595 351.609 278.891C368.138 277.187 365.628 272.929 365.628 272.929L306.894 263.583L303.557 266.1L306.894 267.934Z" fill="#1C0311" stroke="#1A1A1A" stroke-width="2.26036" stroke-linecap="round" stroke-linejoin="round"/>
<path d="M302.324 203.707C302.324 203.707 290.075 216.192 293.137 241.396C295.021 258.592 302.324 265.187 302.324 265.187C302.324 265.187 348.022 278.614 358.386 276.965C368.751 275.316 366.463 266.601 366.782 259.063C367.102 251.525 359.682 200.174 348.375 195.463C337.068 190.751 332.475 189.809 332.475 189.809L314.337 194.991L305.751 198.17" fill="#54CAFA"/>
<path d="M302.324 203.707C302.324 203.707 290.075 216.192 293.137 241.396C295.021 258.592 302.324 265.187 302.324 265.187C302.324 265.187 348.022 278.614 358.386 276.965C368.751 275.316 366.463 266.601 366.782 259.063C367.102 251.525 359.682 200.174 348.375 195.463C337.068 190.751 332.475 189.809 332.475 189.809L314.337 194.991L305.751 198.17" stroke="#1A1A1A" stroke-width="4.52071" stroke-linecap="round" stroke-linejoin="round"/>
<path d="M336.437 190.199C336.437 190.199 353.44 192.754 366.513 211.009C379.586 229.265 379.822 265.658 371.106 274.61C362.391 283.561 338.011 292.63 320.815 260.712C318.931 253.763 323.406 248.581 326.468 248.816C330.708 249.052 342.368 251.407 350.613 261.301C356.148 260.123 359.957 254.269 356.188 231.775" fill="#54CAFA"/>
<path d="M336.437 190.199C336.437 190.199 353.44 192.754 366.513 211.009C379.586 229.265 379.822 265.658 371.106 274.61C362.391 283.561 338.011 292.63 320.815 260.712C318.931 253.763 323.406 248.581 326.468 248.816C330.708 249.052 342.368 251.407 350.613 261.301C356.148 260.123 359.957 254.269 356.188 231.775" stroke="#1A1A1A" stroke-width="4.52071" stroke-linecap="round" stroke-linejoin="round"/>
<path d="M327.823 250.288C327.823 250.288 324.003 246.519 315.519 249.994C310.333 252.114 310.45 255.117 310.45 255.117L330.002 255.353C330.002 255.353 329.177 251.761 327.823 250.288Z" fill="white" stroke="#1A1A1A" stroke-width="4.52071" stroke-linecap="round" stroke-linejoin="round"/>
<path d="M302.167 249.533H251.915V254.342H302.167V249.533Z" fill="white" stroke="#1A1A1A" stroke-width="4.52071" stroke-linecap="round" stroke-linejoin="round"/>
<path d="M257.411 254.325H254.718L239.488 217.29H242.178L257.411 254.325Z" fill="#1C0311" stroke="#1A1A1A" stroke-width="2.26036" stroke-linecap="round" stroke-linejoin="round"/>
<path d="M254.718 254.325H194.89L179.184 217.29H239.488L254.718 254.325Z" fill="white" stroke="#1A1A1A" stroke-width="4.52071" stroke-linecap="round" stroke-linejoin="round"/>
<path d="M337.422 254.342H155.807V261.536H337.422V254.342Z" fill="#1C0311" stroke="#1A1A1A" stroke-width="2.26036" stroke-linecap="round" stroke-linejoin="round"/>
<path d="M262.397 188.042C262.397 188.042 264.517 177.325 262.691 174.675C260.866 172.025 258.628 170.022 257.156 170.022C255.684 170.022 251.326 173.556 251.326 176.265C251.326 178.973 250.972 184.329 252.268 186.245C253.564 188.16 255.095 190.575 255.095 192.224C255.095 193.872 261.042 193.696 262.397 188.042Z" fill="white" stroke="#1A1A1A" stroke-width="4.52071" stroke-linecap="round" stroke-linejoin="round"/>
<path d="M259.924 176.571C259.924 176.571 262.037 185.747 258.966 186.315C255.895 186.883 254.718 185.917 254.718 185.917" fill="white"/>
<path d="M259.924 176.571C259.924 176.571 262.037 185.747 258.966 186.315C255.895 186.883 254.718 185.917 254.718 185.917" stroke="#1A1A1A" stroke-width="4.52071" stroke-linecap="round" stroke-linejoin="round"/>
<path d="M328.996 175.047C326.719 172.678 327.919 168.062 329.353 164.605C332.591 164.486 335.126 163.191 334.713 160.128C334.3 157.068 331.24 156.536 330.119 157.419C328.999 156.183 329.647 155.066 330.708 151.884C325.632 151.104 324.39 145.738 324.089 143.415C323.802 143.256 323.643 143.17 323.643 143.17C323.643 143.17 320.345 142.463 316.575 147.172C315.68 148.292 314.447 149.888 313.142 151.735C308.952 157.663 304.038 166.165 307.27 169.668C309.262 171.834 311.962 173.22 314.883 173.577L315.161 177.562C315.514 185.453 310.099 193.697 305.268 197.936C318.885 204.69 330.985 197.642 335.991 192.074C336.373 191.652 336.732 191.211 337.069 190.753C331.428 186.051 329.584 179.035 328.996 175.047Z" fill="white" stroke="#1A1A1A" stroke-width="4.52071" stroke-linecap="round" stroke-linejoin="round"/>
<path d="M319.338 172.939C319.338 172.939 315.994 175.886 314.947 175.403V173.872L319.338 172.939Z" fill="#1C0311" stroke="#1A1A1A" stroke-width="2.26036" stroke-linecap="round" stroke-linejoin="round"/>
<path d="M319.402 172.718C317.976 173.331 316.434 173.624 314.883 173.577Z" fill="white"/>
<path d="M319.402 172.718C317.976 173.331 316.434 173.624 314.883 173.577" stroke="#1A1A1A" stroke-width="4.52071" stroke-linecap="round" stroke-linejoin="round"/>
<path d="M73.2206 320.465C70.8281 317.077 67.0341 314.402 62.8866 314.44C57.6638 314.487 53.4167 318.614 48.4011 320.072C41.6587 322.031 33.8392 318.427 30.6589 312.167C27.4786 305.907 29.0287 297.689 34.0423 292.773C36.6441 290.222 40.2861 288.069 40.7323 284.452C41.0969 281.498 39.0571 278.76 36.7136 276.925C34.3702 275.09 31.6106 273.775 29.5297 271.647C25.3534 267.375 24.9193 259.975 28.5676 255.244C32.2159 250.514 39.4843 249.054 44.6765 252.008C47.4254 253.572 49.5471 256.154 52.4552 257.397C56.6794 259.203 61.5317 257.807 65.8411 256.215C70.1505 254.624 74.7356 252.816 79.2062 253.874C80.9531 254.287 82.5716 255.124 83.9194 256.309C85.2672 257.495 86.3029 258.994 86.9355 260.674C87.5681 262.354 87.7781 264.163 87.5471 265.944C87.316 267.724 86.6511 269.42 85.6106 270.883C83.6591 273.626 80.3155 275.79 80.1679 279.154C80.0174 282.582 83.476 285.166 86.8435 285.825C90.2109 286.484 93.7137 285.895 97.1065 286.408C100.499 286.921 104.111 289.124 104.405 292.543C104.865 297.872 97.2649 301.404 97.8917 306.715C98.1834 309.187 100.202 311.026 101.735 312.986C103.548 315.306 104.807 318.132 104.901 321.074C104.996 324.017 103.82 327.06 101.507 328.881C98.5908 331.178 94.5507 331.213 90.8394 331.144C87.6473 331.084 81.44 332.244 78.5741 330.616C75.7849 329.031 75.1886 323.089 73.2206 320.465Z" fill="white" stroke="#1A1A1A" stroke-width="4.52071" stroke-linecap="round" stroke-linejoin="round"/>
<path d="M69.1207 235.623C68.7538 231.141 71.0837 226.093 75.4218 224.907C78.3517 224.105 82.0087 224.994 84.0778 222.77C86.5574 220.105 84.3434 215.745 85.1043 212.186C85.5861 209.931 87.3331 208.069 89.4296 207.11C91.5261 206.152 93.9292 206.019 96.2078 206.369C98.5707 206.733 100.831 207.59 102.84 208.885C104.849 210.18 106.563 211.884 107.87 213.886C109.177 215.888 110.046 218.143 110.423 220.504C110.8 222.865 110.675 225.279 110.056 227.588C108.94 231.75 106.224 235.794 107.149 240.003C108.178 244.685 113.36 247.53 114.54 252.176C115.316 255.235 114.185 258.445 112.788 261.276C111.391 264.106 109.684 266.876 109.211 269.996C108.609 273.958 110.069 277.9 111.199 281.745C112.329 285.589 113.105 289.903 111.273 293.467C109.845 296.246 106.989 298.104 103.961 298.873C100.933 299.641 97.7364 299.43 94.6598 298.887C90.2375 298.108 85.8795 296.624 82.206 294.042C78.5324 291.459 75.5807 287.708 74.47 283.357C73.3152 278.833 74.2414 274.169 75.8573 269.883C77.1384 266.485 79.7129 262.875 79.5497 259.1C79.3826 255.234 76.3851 251.614 74.4751 248.44C72.0927 244.482 69.5071 240.344 69.1207 235.623Z" fill="white" stroke="#1A1A1A" stroke-width="4.52071" stroke-linecap="round" stroke-linejoin="round"/>
<path d="M43.8394 266.444C43.8394 266.444 67.7091 274.295 74.1477 293.454C80.5862 312.613 86.9647 329.917 96.7915 330.843" fill="white"/>
<path d="M43.8394 266.444C43.8394 266.444 67.7091 274.295 74.1477 293.454C80.5862 312.613 86.9647 329.917 96.7915 330.843" stroke="#1A1A1A" stroke-width="4.52071" stroke-linecap="round" stroke-linejoin="round"/>
<path d="M68.0232 268.721C68.0232 269.113 65.2044 274.585 67.399 281.939Z" fill="white"/>
<path d="M68.0232 268.721C68.0232 269.113 65.2044 274.585 67.399 281.939" stroke="#1A1A1A" stroke-width="4.52071" stroke-linecap="round" stroke-linejoin="round"/>
<path d="M61.0403 300.285C61.0403 300.285 73.6522 309.56 78.8074 306.689Z" fill="white"/>
<path d="M61.0403 300.285C61.0403 300.285 73.6522 309.56 78.8074 306.689" stroke="#1A1A1A" stroke-width="4.52071" stroke-linecap="round" stroke-linejoin="round"/>
<path d="M47.5298 276.18C47.5298 276.18 57.9048 281.27 61.0403 275.938Z" fill="white"/>
<path d="M47.5298 276.18C47.5298 276.18 57.9048 281.27 61.0403 275.938" stroke="#1A1A1A" stroke-width="4.52071" stroke-linecap="round" stroke-linejoin="round"/>
<path d="M95.662 224.982C95.662 224.982 86.3967 269.427 94.5627 290.313Z" fill="white"/>
<path d="M95.662 224.982C95.662 224.982 86.3967 269.427 94.5627 290.313" stroke="#1A1A1A" stroke-width="4.52071" stroke-linecap="round" stroke-linejoin="round"/>
<path d="M99.588 235.807C99.588 235.807 96.295 242.797 92.5237 245.277Z" fill="white"/>
<path d="M99.588 235.807C99.588 235.807 96.295 242.797 92.5237 245.277" stroke="#1A1A1A" stroke-width="4.52071" stroke-linecap="round" stroke-linejoin="round"/>
<path d="M82.4707 246.657C82.6277 247.285 85.4776 256.39 91.1979 257.648Z" fill="white"/>
<path d="M82.4707 246.657C82.6277 247.285 85.4776 256.39 91.1979 257.648" stroke="#1A1A1A" stroke-width="4.52071" stroke-linecap="round" stroke-linejoin="round"/>
<path d="M91.1979 227.498C91.1979 227.498 91.1271 233.048 93.9872 234.461Z" fill="white"/>
<path d="M91.1979 227.498C91.1979 227.498 91.1271 233.048 93.9872 234.461" stroke="#1A1A1A" stroke-width="4.52071" stroke-linecap="round" stroke-linejoin="round"/>
<path d="M118.64 333.969C117.748 328.834 121.777 324.001 126.404 321.602C131.031 319.202 136.325 318.436 141.153 316.472C150.716 312.582 158.098 303.731 160.209 293.626C161.173 289.009 160.864 283.629 157.454 280.371C156.252 279.223 154.756 278.431 153.495 277.349C152.234 276.268 151.17 274.73 151.322 273.075C151.48 271.356 152.891 270.019 154.366 269.121C155.841 268.223 157.497 267.566 158.726 266.354C161.073 264.04 161.272 260.247 160.346 257.084C158.265 249.974 150.874 244.814 143.482 245.31C136.091 245.806 129.455 251.908 128.343 259.232C128.041 261.223 128.046 263.42 126.767 264.975C124.866 267.287 121.202 266.923 118.445 265.759C115.688 264.596 113.007 262.815 110.017 262.941C105.318 263.139 102.24 267.78 99.9652 271.897C96.6645 277.87 93.342 283.894 91.2962 290.405C89.2503 296.917 88.5452 304.03 90.54 310.557C93.1655 319.148 100.026 325.666 106.618 331.768C110.571 331.139 115.195 331.932 118.64 333.969Z" fill="white" stroke="#1A1A1A" stroke-width="4.52071" stroke-linecap="round" stroke-linejoin="round"/>
<path d="M109.874 329.259C109.874 329.259 109.874 302.876 139.083 272.961Z" fill="white"/>
<path d="M109.874 329.259C109.874 329.259 109.874 302.876 139.083 272.961" stroke="#1A1A1A" stroke-width="4.52071" stroke-linecap="round" stroke-linejoin="round"/>
<path d="M147.092 275.022C147.092 275.022 147.737 279.429 134.047 278.403Z" fill="white"/>
<path d="M147.092 275.022C147.092 275.022 147.737 279.429 134.047 278.403" stroke="#1A1A1A" stroke-width="4.52071" stroke-linecap="round" stroke-linejoin="round"/>
<path d="M124.184 277.26C124.184 277.26 120.638 285.672 125.826 288.856Z" fill="white"/>
<path d="M124.184 277.26C124.184 277.26 120.638 285.672 125.826 288.856" stroke="#1A1A1A" stroke-width="4.52071" stroke-linecap="round" stroke-linejoin="round"/>
<path d="M137.611 295.869C137.611 295.869 123.031 301.673 118.631 300.655Z" fill="white"/>
<path d="M137.611 295.869C137.611 295.869 123.031 301.673 118.631 300.655" stroke="#1A1A1A" stroke-width="4.52071" stroke-linecap="round" stroke-linejoin="round"/>
<path d="M109.285 300.775C109.285 300.775 114.86 308.069 113.428 312.603Z" fill="white"/>
<path d="M109.285 300.775C109.285 300.775 114.86 308.069 113.428 312.603" stroke="#1A1A1A" stroke-width="4.52071" stroke-linecap="round" stroke-linejoin="round"/>
<path d="M125.656 326.668L73.127 327.845L73.9607 332.556H125.008L125.656 326.668Z" fill="white" stroke="#1A1A1A" stroke-width="4.52071" stroke-linecap="round" stroke-linejoin="round"/>
<path d="M74.4583 335.369L81.8804 377.312H120.083L124.699 335.369H74.4583Z" fill="white" stroke="#1A1A1A" stroke-width="4.52071" stroke-linecap="round" stroke-linejoin="round"/>
<path d="M125.008 332.557H73.9607L74.4582 335.369H124.699L125.008 332.557Z" fill="#1C0311" stroke="#1A1A1A" stroke-width="2.26036" stroke-linecap="round" stroke-linejoin="round"/>
<path d="M81.8804 377.312L86.5538 403.723H117.176L120.083 377.312H81.8804Z" fill="#1C0311" stroke="#1A1A1A" stroke-width="2.26036" stroke-linecap="round" stroke-linejoin="round"/>
<path d="M102.422 45.1773H96.1259C95.2626 45.1773 94.5627 45.8772 94.5627 46.7405V50.6808C94.5627 51.5442 95.2626 52.244 96.1259 52.244H102.422C103.285 52.244 103.985 51.5442 103.985 50.6808V46.7405C103.985 45.8772 103.285 45.1773 102.422 45.1773Z" fill="white" stroke="#1A1A1A" stroke-width="4.52071" stroke-linecap="round" stroke-linejoin="round"/>
<path d="M177.459 45.7662H119.198C118.406 45.7662 117.765 46.4077 117.765 47.1991V50.8111C117.765 51.6024 118.406 52.244 119.198 52.244H177.459C178.25 52.244 178.892 51.6024 178.892 50.8111V47.1991C178.892 46.4077 178.25 45.7662 177.459 45.7662Z" fill="white" stroke="#1A1A1A" stroke-width="4.52071" stroke-linecap="round" stroke-linejoin="round"/>
<path d="M56.7876 211.529C64.2589 211.529 70.3156 205.472 70.3156 198.001C70.3156 190.53 64.2589 184.473 56.7876 184.473C49.3162 184.473 43.2595 190.53 43.2595 198.001C43.2595 205.472 49.3162 211.529 56.7876 211.529Z" fill="white" stroke="#1A1A1A" stroke-width="4.52071" stroke-linecap="round" stroke-linejoin="round"/>
<path d="M47.8656 163.53C51.1611 163.53 53.8325 160.858 53.8325 157.563C53.8325 154.268 51.1611 151.596 47.8656 151.596C44.5702 151.596 41.8987 154.268 41.8987 157.563C41.8987 160.858 44.5702 163.53 47.8656 163.53Z" fill="white" stroke="#1A1A1A" stroke-width="4.52071" stroke-linecap="round" stroke-linejoin="round"/>
<path d="M354.953 61.5726C362.056 61.5726 367.815 55.8141 367.815 48.7106C367.815 41.6072 362.056 35.8487 354.953 35.8487C347.849 35.8487 342.091 41.6072 342.091 48.7106C342.091 55.8141 347.849 61.5726 354.953 61.5726Z" fill="white" stroke="#1A1A1A" stroke-width="4.52071" stroke-linecap="round" stroke-linejoin="round"/>
<path d="M361.861 54.4491H348.044C348.044 54.4491 347.916 52.8501 348.747 52.4653C349.58 52.0823 350.218 44.2154 352.587 43.256C352.956 43.1055 353.267 42.9789 353.531 42.8729C353.455 42.6902 353.416 42.4943 353.416 42.2966C353.416 42.0699 353.466 41.8459 353.562 41.6409C353.659 41.4358 353.8 41.2546 353.975 41.1103C354.15 40.9661 354.354 40.8624 354.574 40.8066C354.794 40.7508 355.023 40.7443 355.246 40.7877C355.468 40.831 355.678 40.9231 355.861 41.0573C356.044 41.1915 356.194 41.3644 356.302 41.5638C356.41 41.7631 356.473 41.9839 356.485 42.2102C356.498 42.4366 356.46 42.6629 356.375 42.8729C356.636 42.9789 356.949 43.1055 357.319 43.256C359.686 44.2154 360.325 52.0823 361.156 52.4653C361.988 52.8501 361.861 54.4491 361.861 54.4491Z" fill="#1A1A1A" stroke="#1A1A1A" stroke-width="4.52071" stroke-linecap="round" stroke-linejoin="round"/>
<path d="M357.163 54.4492C357.163 55.0356 356.93 55.5981 356.516 56.0128C356.101 56.4275 355.538 56.6604 354.952 56.6604C354.366 56.6604 353.803 56.4275 353.388 56.0128C352.974 55.5981 352.741 55.0356 352.741 54.4492H357.163Z" fill="#1A1A1A" stroke="#1A1A1A" stroke-width="4.52071" stroke-linecap="round" stroke-linejoin="round"/>
<path d="M257.411 187.447V223.944" stroke="#1A1A1A" stroke-width="4.52071" stroke-linecap="round" stroke-linejoin="round" stroke-dasharray="27.12 27.12"/>
<path d="M39.823 108.501L37.142 112.326C33.9085 110.061 30.0408 108.878 26.0934 108.947C22.1461 109.016 18.3218 110.332 15.1691 112.709L12.3589 108.976C16.2992 106.005 21.0795 104.359 26.0136 104.273C30.9478 104.188 35.7822 105.668 39.823 108.501V108.501Z" fill="white" stroke="#1A1A1A" stroke-width="4.52071" stroke-linecap="round" stroke-linejoin="round"/>
<path d="M46.782 98.3706L42.7423 104.135C37.8702 100.722 32.0424 98.9397 26.0947 99.0431C20.1469 99.1465 14.3847 101.131 9.6342 104.711L5.3999 99.0872C11.3371 94.6107 18.5398 92.13 25.9744 92.0012C33.4091 91.8725 40.6934 94.1023 46.782 98.3706V98.3706Z" fill="white" stroke="#1A1A1A" stroke-width="4.52071" stroke-linecap="round" stroke-linejoin="round"/>
<path d="M34.4597 116.155L31.776 119.985C30.16 118.851 28.2263 118.259 26.2526 118.293C24.2789 118.327 22.3668 118.986 20.7909 120.175L17.9807 116.441C20.3451 114.659 23.2133 113.671 26.1737 113.62C29.1342 113.568 32.0349 114.456 34.4597 116.155V116.155Z" fill="white" stroke="#1A1A1A" stroke-width="4.52071" stroke-linecap="round" stroke-linejoin="round"/>
<path d="M30.8801 129.007C30.6643 129.712 30.2847 130.356 29.7723 130.886C29.2599 131.417 28.6293 131.818 27.9321 132.058C27.2348 132.298 26.4906 132.369 25.7605 132.267C25.0303 132.164 24.3348 131.89 23.7309 131.466C23.127 131.043 22.6318 130.483 22.2858 129.832C21.9398 129.181 21.7529 128.457 21.7402 127.72C21.7275 126.983 21.8895 126.253 22.213 125.59C22.5364 124.927 23.0121 124.351 23.6011 123.907H23.6024C24.3905 123.313 25.3464 122.985 26.333 122.968C27.3196 122.951 28.2862 123.247 29.0943 123.813C29.9024 124.379 30.5104 125.187 30.8312 126.12C31.152 127.053 31.1691 128.064 30.8801 129.007Z" fill="white" stroke="#1A1A1A" stroke-width="4.52071" stroke-linecap="round" stroke-linejoin="round"/>
</g>
<defs>
<clipPath id="clip0_192_65">
<rect width="450" height="450" fill="white"/>
</clipPath>
</defs>
</svg>
