<svg width="33" height="32" viewBox="0 0 33 32" fill="none" xmlns="http://www.w3.org/2000/svg">
<g clip-path="url(#clip0_826_2699)">
<path d="M26.5732 32H5.90631C2.77287 32 0.239746 29.4019 0.239746 26.1881V5.81186C0.239746 2.59807 2.77287 0 5.90631 0H26.5732C29.7066 0 32.2397 2.59807 32.2397 5.81186V26.1881C32.2397 29.4019 29.7066 32 26.5732 32Z" fill="#FF26BE"/>
<path d="M26.0665 30.632H6.41341C3.74717 30.632 1.57373 28.4028 1.57373 25.6682V6.33169C1.57373 3.59709 3.74717 1.36792 6.41341 1.36792H26.0537C28.7341 1.36792 30.8934 3.59709 30.8934 6.33169V25.6551C30.9062 28.4028 28.7328 30.632 26.0665 30.632Z" fill="#2E001F"/>
<path d="M12.8926 14.9741L16.6263 22.3311C16.6929 22.4401 16.6532 22.5504 16.5457 22.5504H14.225C14.0778 22.5504 14.0113 22.5097 13.9447 22.3732C13.091 20.568 12.2244 18.7629 11.331 16.8212H11.3041C10.5041 18.6539 9.62343 20.5825 8.77095 22.3876C8.70439 22.4966 8.63783 22.5386 8.53031 22.5386H6.33255C6.19943 22.5386 6.18535 22.4296 6.25319 22.3469L9.90631 15.2078L6.37351 7.98727C6.29287 7.87831 6.37351 7.7956 6.45287 7.7956H8.74663C8.87975 7.7956 8.93351 7.82317 8.98599 7.94657C9.82567 9.7517 10.6794 11.612 11.4794 13.4302H11.5063C12.2794 11.6251 13.1332 9.7517 13.9601 7.9597C14.0266 7.85074 14.0663 7.78247 14.2007 7.78247H16.3473C16.4535 7.78247 16.4945 7.86518 16.4279 7.97414L12.8926 14.9741ZM17.2804 17.2033C17.2804 14.0171 19.3476 11.5279 22.627 11.5279C22.9073 11.5279 23.0532 11.5279 23.3207 11.5555V7.93213C23.3207 7.84942 23.3873 7.7956 23.4538 7.7956H25.5607C25.667 7.7956 25.6938 7.8363 25.6938 7.90456V20.4591C25.6938 20.828 25.6938 21.2927 25.7604 21.7995C25.7604 21.8822 25.7335 21.9084 25.6542 21.9504C24.5342 22.4979 23.3604 22.7434 22.2404 22.7434C19.3463 22.7552 17.2791 20.9238 17.2804 17.2033ZM23.3194 13.7033C23.1326 13.6206 22.8663 13.5668 22.5463 13.5668C20.8657 13.5668 19.6932 14.8927 19.6932 17.0956C19.6932 19.6123 20.8938 20.6245 22.4004 20.6245C22.7204 20.6245 23.0673 20.5838 23.3207 20.4735V13.7033H23.3194Z" fill="#FFD9F2"/>
</g>
<defs>
<clipPath id="clip0_826_2699">
<rect width="32" height="32" fill="white" transform="translate(0.239746)"/>
</clipPath>
</defs>
</svg>
