<svg width="24" height="32" viewBox="0 0 24 32" fill="none" xmlns="http://www.w3.org/2000/svg">
<g clip-path="url(#clip0_826_2751)">
<path d="M12.1465 31.9192L2.91153 29.3555L0.853516 6.27295H23.4671L21.407 29.352L12.1465 31.9192Z" fill="#264DE4"/>
<path d="M19.6431 27.8823L21.4035 8.16016H12.1602V29.9568L19.6431 27.8823Z" fill="#2965F1"/>
<path d="M5.5714 16.7212L5.82509 19.5521H12.1603V16.7212H5.5714ZM5.06152 10.9912L5.31885 13.8222H12.1603V10.9912H5.06152ZM12.1603 24.0735L12.1479 24.0768L8.99504 23.2255L8.79347 20.9677H5.95158L6.34817 25.4128L12.1473 27.0225L12.1603 27.019V24.0735Z" fill="#EBEBEB"/>
<path d="M6.17529 0H9.60399V1.43388H7.60918V2.86777H9.60417V4.30156H6.17529V0ZM10.2898 0H13.7186V1.24685H11.7237V1.4962H13.7186V4.36397H10.2899V3.05463H12.2848V2.80527H10.2897L10.2898 0ZM14.4044 0H17.8332V1.24685H15.8383V1.4962H17.8332V4.36397H14.4044V3.05463H16.3993V2.80527H14.4045V0H14.4044Z" fill="black"/>
<path d="M18.731 16.7212L19.2421 10.9912H12.1505V13.8222H16.1396L15.882 16.7212H12.1505V19.5521H15.6365L15.3078 23.2237L12.1504 24.0759V27.0212L17.9541 25.4128L17.9966 24.9344L18.662 17.4814L18.731 16.7212Z" fill="white"/>
</g>
<defs>
<clipPath id="clip0_826_2751">
<rect width="22.6944" height="32" fill="white" transform="translate(0.812988)"/>
</clipPath>
</defs>
</svg>
