<svg width="32" height="32" viewBox="0 0 32 32" fill="none" xmlns="http://www.w3.org/2000/svg">
<path d="M10.6668 31.9999C13.6108 31.9999 16.0002 29.6106 16.0002 26.6666V21.3333H10.6668C7.72283 21.3333 5.3335 23.7226 5.3335 26.6666C5.3335 29.6106 7.72283 31.9999 10.6668 31.9999Z" fill="#0ACF83"/>
<path d="M5.3335 16.0001C5.3335 13.0561 7.72283 10.6667 10.6668 10.6667H16.0002V21.3334H10.6668C7.72283 21.3334 5.3335 18.9441 5.3335 16.0001Z" fill="#A259FF"/>
<path d="M5.3335 5.33333C5.3335 2.38933 7.72283 0 10.6668 0H16.0002V10.6667H10.6668C7.72283 10.6667 5.3335 8.27733 5.3335 5.33333Z" fill="#F24E1E"/>
<path d="M16 0H21.3333C24.2773 0 26.6667 2.38933 26.6667 5.33333C26.6667 8.27733 24.2773 10.6667 21.3333 10.6667H16V0Z" fill="#FF7262"/>
<path d="M26.6667 16.0001C26.6667 18.9441 24.2773 21.3334 21.3333 21.3334C18.3893 21.3334 16 18.9441 16 16.0001C16 13.0561 18.3893 10.6667 21.3333 10.6667C24.2773 10.6667 26.6667 13.0561 26.6667 16.0001Z" fill="#1ABCFE"/>
</svg>
