<svg width="23" height="32" viewBox="0 0 23 32" fill="none" xmlns="http://www.w3.org/2000/svg">
<g clip-path="url(#clip0_826_2757)">
<path d="M22.6532 6.27295L20.593 29.352L11.3325 31.9192L2.09757 29.3555L0.0395508 6.27295H22.6532Z" fill="#E44D26"/>
<path d="M11.3462 29.9568L18.8291 27.8823L20.5896 8.16016H11.3462V29.9568Z" fill="#F16529"/>
<path d="M7.34145 13.8222H11.3463V10.9912H4.24756L4.31528 11.7507L5.01113 19.5521H11.3463V16.7212H7.6002L7.34145 13.8222ZM7.9795 20.9677H5.13762L5.53421 25.4128L11.3333 27.0225L11.3463 27.019V24.0735L11.3339 24.0768L8.18108 23.2255L7.9795 20.9677Z" fill="#EBEBEB"/>
<path d="M2.14355 0H3.58223V1.42139H4.8983V0H6.33706V4.30431H4.89839V2.86298H3.58231V4.30431H2.14364L2.14355 0ZM8.22887 1.42741H6.96252V0H10.935V1.42741H9.66781V4.30431H8.22914V1.42741H8.22887ZM11.5654 0H13.0655L13.9883 1.51242L14.9101 0H16.4109V4.30431H14.978V2.17086L13.9883 3.70127H13.9634L12.973 2.17086V4.30431H11.5654V0ZM17.1268 0H18.5659V2.8816H20.5891V4.30431H17.1267V0H17.1268Z" fill="black"/>
<path d="M11.3365 19.5521H14.8226L14.4939 23.2237L11.3364 24.0759V27.0212L17.1401 25.4128L17.1827 24.9344L17.848 17.4814L17.9171 16.7212H11.3365V19.5521ZM11.3365 13.8153V13.8222H18.1747L18.2314 13.1859L18.3605 11.7507L18.4281 10.9912H11.3365V13.8153Z" fill="white"/>
</g>
<defs>
<clipPath id="clip0_826_2757">
<rect width="22.6944" height="32" fill="white"/>
</clipPath>
</defs>
</svg>
