<svg width="32" height="32" viewBox="0 0 32 32" fill="none" xmlns="http://www.w3.org/2000/svg">
<path d="M4.24316 2.66675L6.38306 26.6677L15.9855 29.3334L25.6144 26.664L27.7565 2.66675H4.24316ZM23.1 10.5165H11.8356L12.1047 13.5307H22.8321L22.0242 22.5681L15.9998 24.2377L15.9863 24.242L9.95647 22.5682L9.54412 17.9462H12.4991L12.7086 20.2939L15.9869 21.1791L15.9896 21.1784L19.2727 20.2921L19.6144 16.4744H9.41255L8.61862 7.57284H23.3635L23.1 10.5165Z" fill="#6563FF"/>
<path d="M23.1 10.5164H11.8356L12.1047 13.5307H22.8321L22.0242 22.568L15.9999 24.2377L15.9863 24.2419L9.95651 22.5681L9.54416 17.9462H12.4991L12.7087 20.2938L15.987 21.179L15.9896 21.1783L19.2727 20.292L19.6145 16.4743H9.41259L8.61865 7.57275H23.3635L23.1 10.5164Z" fill="#D8D8FF"/>
</svg>
