<svg width="33" height="32" viewBox="0 0 33 32" fill="none" xmlns="http://www.w3.org/2000/svg">
<g clip-path="url(#clip0_826_2745)">
<path d="M1.13184 0.749756H32.3196V31.125H1.13184V0.749756Z" fill="#FFAA2B"/>
<path d="M3.50732 3.18848H29.8815V28.6865H3.50732V3.18848Z" fill="#3B3323"/>
<path opacity="0.302" d="M23.4443 9.24994C23.5066 9.29144 21.6943 11.1874 21.6943 11.1874L24.031 13.0284L21.8818 14.6249L16.5068 9.43744L13.9443 10.0624L12.3193 15.2499L9.38182 22.3124L18.3818 28.6874H29.8818V14.4374C29.8818 14.4374 23.382 9.20844 23.4443 9.24994ZM3.50732 3.1875H29.8815V4.06238H3.50732V3.1875Z" fill="black"/>
<path d="M12.9449 18.6595L11.8375 22.3064H9.4126L13.5368 9.4374H16.5345L20.716 22.3064H18.1956L17.0309 18.6595H12.9449ZM16.63 16.8838L15.618 13.7143C15.3698 12.9315 15.1598 12.0532 14.9688 11.3085H14.9307C14.7397 12.0532 14.5488 12.9505 14.3197 13.7143L13.3268 16.8838H16.63ZM24.1525 10.4111C24.1525 11.1175 23.637 11.6713 22.816 11.6713C22.0332 11.6713 21.5177 11.1176 21.5177 10.4111C21.5177 9.68552 22.0523 9.13184 22.8351 9.13184C23.637 9.13184 24.1334 9.68552 24.1525 10.4111ZM21.6513 22.3063V13.0078H24.0189V22.3063H21.6513Z" fill="#FFAA2B"/>
</g>
<defs>
<clipPath id="clip0_826_2745">
<rect width="32" height="32" fill="white" transform="translate(0.694336)"/>
</clipPath>
</defs>
</svg>
