<svg width="24" height="32" viewBox="0 0 24 32" fill="none" xmlns="http://www.w3.org/2000/svg">
<g clip-path="url(#clip0_826_2714)">
<path d="M23.24 6.27075H0.507324L2.63846 29.381L11.8725 32L21.1066 29.381L23.24 6.27075Z" fill="#E6A329"/>
<path d="M11.8726 8.15356V30.0416L19.3542 27.922L21.1743 8.15356H11.8726Z" fill="#F1BF22"/>
<path d="M17.8248 10.9888H6.32126L5.52002 19.6406L5.53651 19.5868H15.3093L14.9911 23.2475L11.8729 24.1445L8.70876 23.233L8.51923 21.0174H5.64705L6.05678 25.4446L11.8729 27.0957L17.6916 25.4446L18.4929 16.7546H8.12107L8.25418 13.8592H15.4503L15.5579 15.5181H18.4544L17.8248 10.9888Z" fill="white"/>
<path d="M11.8752 10.9888H6.32126L5.52002 19.6406L5.53651 19.5868H11.8749V16.7644H8.5256L8.6587 13.8691H11.8752V10.9888ZM8.5256 21.0188H5.64676L6.05649 25.4437L11.8726 27.0931V24.1486L8.70847 23.2348L8.5256 21.0188Z" fill="#EBEBEB"/>
<path d="M9.66197 2.86206H7.63818V4.31493H11.1105V0H9.6637L9.66197 2.86206ZM16.108 0.0231488H12.5802V1.53361C13.0512 2.00468 13.2969 2.23125 13.9908 2.91356H12.5802V4.29092H16.1077V2.91588L14.6986 1.53592H16.1092L16.108 0.0231488Z" fill="#231F20"/>
</g>
<defs>
<clipPath id="clip0_826_2714">
<rect width="22.7327" height="32" fill="white" transform="translate(0.507324)"/>
</clipPath>
</defs>
</svg>
