<svg width="32" height="32" viewBox="0 0 32 32" fill="none" xmlns="http://www.w3.org/2000/svg">
<path d="M3.72175 4.579L4.40175 5.70975L5.0285 6.75525C5.35375 7.29775 5.679 7.84025 6.00375 8.38275L6.66925 9.49275L7.63975 11.109L8.827 13.093C9.16925 13.6643 9.51225 14.2352 9.855 14.8062L9.901 14.873C9.95075 14.8885 9.99025 14.8753 10.0312 14.8655C10.483 14.757 10.9348 14.6493 11.3865 14.5415C12.1193 14.3665 12.852 14.192 13.5845 14.0168L14.7325 13.7423C15.473 13.5653 16.214 13.3888 16.9548 13.2113C17.7038 13.0323 18.4523 12.8523 19.201 12.6728C19.5795 12.582 19.958 12.4915 20.3368 12.4012L22.5347 11.8772L24.9285 11.3073L25.0578 11.2723L25.0225 11.2022C24.8052 10.8942 24.587 10.5868 24.3692 10.279L23.724 9.3655L23.034 8.391L22.3743 7.45675L21.7208 6.5335L21.0455 5.5795L20.384 4.64675L20.035 4.1545C19.9817 4.07875 19.9392 3.9975 19.9107 3.909C19.842 3.695 19.9205 3.55275 20.0452 3.4475C20.1262 3.379 20.2192 3.329 20.3202 3.29925C20.4607 3.25775 20.6023 3.21825 20.7458 3.19125C21.0335 3.137 21.323 3.09075 21.612 3.04275C21.938 2.9885 22.2642 2.93675 22.5907 2.883C22.797 2.849 23.0032 2.81325 23.2097 2.77825L24.0515 2.6365C24.3238 2.59075 24.5965 2.5455 24.8687 2.50075L25.7607 2.355L26.38 2.25075C26.615 2.2115 26.8505 2.17225 27.0858 2.13375C27.3793 2.086 27.6722 2.03775 27.966 1.99175C28.1405 1.9645 28.3158 1.95475 28.4893 2.00475C28.6195 2.0425 28.7377 2.1035 28.8482 2.18125L29.0007 2.28775C29.016 2.2525 28.994 2.2335 28.984 2.21325C28.7637 1.76775 28.4635 1.38475 28.0825 1.06525C27.7278 0.7685 27.3295 0.55025 26.8892 0.41125C26.6292 0.32875 26.362 0.2905 26.0895 0.27L25.9557 0.25H6.14025L6.033 0.26725C5.7945 0.286 5.56 0.3215 5.32925 0.38475C4.824 0.5235 4.375 0.7645 3.979 1.106C3.746 1.30675 3.54275 1.53275 3.37025 1.78775C3.104 2.18125 2.92225 2.609 2.83125 3.085L2.9465 3.28575C3.20475 3.71725 3.46325 4.148 3.72175 4.579ZM5.032 26.5352C5.2745 26.6285 5.525 26.694 5.7835 26.7257L6.04525 26.7375C6.086 26.7427 6.12525 26.75 6.16525 26.75H14.2373C14.2243 26.75 14.2125 26.7128 14.198 26.6875C13.8802 26.1455 13.5595 25.6135 13.2455 25.0695C12.8502 24.384 12.4588 23.7002 12.0693 23.0112C11.6533 22.2752 11.241 21.5388 10.828 20.8008C10.4358 20.099 10.0442 19.398 9.6535 18.6957C9.4175 18.2712 9.18275 17.8468 8.94725 17.422L8.88425 17.325L8.76975 17.3477C8.54275 17.4062 8.31625 17.4655 8.0895 17.525C7.774 17.608 7.459 17.6925 7.14325 17.775C6.43475 17.9595 5.726 18.1427 5.0175 18.3267C4.29675 18.5137 3.5915 18.7013 2.87025 18.8875C2.8265 18.899 3 18.903 2.75 18.9105V23.3867C3 23.4127 2.784 23.4603 2.7895 23.506C2.806 23.6385 2.81075 23.772 2.83425 23.9035C2.9215 24.3927 3.1065 24.8402 3.39025 25.248C3.80625 25.846 4.35325 26.2737 5.032 26.5352ZM3.5015 16.4377C4.3355 16.2395 5.1695 16.0415 6.0035 15.8435L7.1025 15.5837C7.2855 15.5402 7.4695 15.4985 7.651 15.4495C7.8125 15.4058 7.83275 15.3523 7.7495 15.2063C7.62925 14.9953 7.507 14.7858 7.385 14.5758L6.313 12.73L5.24125 10.8837C4.87775 10.2577 4.514 9.6315 4.15025 9.0055L3.21625 7.39875L2.828 6.7035C2.803 6.661 3.00025 6.61075 2.75025 6.58825V16.622C2.75025 16.6152 2.80125 16.6095 2.8335 16.6017L3.5015 16.4377ZM29.1693 23.6098C28.8423 23.726 28.5155 23.843 28.1885 23.96C27.4442 24.2267 26.7002 24.4935 25.956 24.7605C25.543 24.9087 25.13 25.0587 24.7162 25.2065C23.8735 25.5075 23.0303 25.8073 22.187 26.1075C21.6983 26.2815 21.2095 26.4388 20.7213 26.6135C20.5875 26.6618 20.4555 26.75 20.323 26.75H25.9307L26.0518 26.7385C26.194 26.7325 26.3345 26.719 26.4745 26.6933C27.0503 26.588 27.5657 26.3535 28.0222 25.9895C28.3727 25.71 28.6583 25.3755 28.8818 24.9855C29.1118 24.584 29.2482 24.1533 29.3137 23.6973C29.3195 23.658 29.3317 23.6152 29.2987 23.5745C29.2527 23.571 29.2115 23.5945 29.1693 23.6098ZM28.6875 16.0795C28.44 15.7413 28.1925 15.4035 27.9455 15.065C27.605 14.5977 27.2647 14.13 26.9247 13.6628C26.7865 13.473 26.6465 13.2848 26.5112 13.093C26.4707 13.0353 26.4243 13.02 26.361 13.037L26.3248 13.0475C25.6985 13.1995 25.072 13.3515 24.4455 13.5033L23.3232 13.7755L21.1278 14.3088C20.4038 14.4848 19.68 14.6608 18.956 14.8365C18.2035 15.0188 17.451 15.2005 16.699 15.383C15.9587 15.5628 15.2188 15.743 14.4788 15.923C13.763 16.0968 13.0473 16.2708 12.3315 16.4443C11.9533 16.536 11.5753 16.6275 11.1973 16.72C11.1415 16.7335 11.0815 16.7367 11.0225 16.7817L11.073 16.878C11.39 17.4255 11.7067 17.9728 12.0245 18.5198C12.384 19.1393 12.744 19.7585 13.1047 20.3773C13.5015 21.0573 13.8993 21.737 14.2968 22.417C14.525 22.8075 14.752 23.1987 14.9823 23.5882C15.238 24.0207 15.495 24.4527 15.7557 24.8827C15.8337 25.0115 15.9222 25.1343 16.0115 25.2553C16.0715 25.336 16.1457 25.405 16.2332 25.4578C16.3232 25.5123 16.4208 25.5293 16.523 25.5063C16.576 25.4943 16.6278 25.4767 16.679 25.459L16.8675 25.3892C17.5525 25.1547 18.2375 24.9205 18.9233 24.687C19.458 24.5048 19.9932 24.3237 20.5285 24.1427C21.0597 23.9627 21.5912 23.7833 22.1225 23.604C22.6497 23.4258 23.1773 23.2477 23.7048 23.0697C24.244 22.8875 24.7833 22.7052 25.3225 22.5225C25.9843 22.298 26.646 22.0725 27.308 21.8485C27.9463 21.6325 28.5847 21.4177 29.2235 21.2025C29.2625 21.1892 29.3057 21.1838 29.3382 21.1408L29.3423 21.0478C29.3423 19.7238 29.342 18.3993 29.3438 17.075C29.3438 17.0043 29.3247 16.9472 29.2822 16.8905C29.082 16.6212 28.8853 16.35 28.6875 16.0795ZM28.5777 3.60275C28.429 3.4145 28.2397 3.35475 28.008 3.41525C27.907 3.44175 27.8033 3.45825 27.7005 3.47725C27.3628 3.539 27.0252 3.59975 26.6875 3.661C26.1935 3.75075 25.6997 3.8415 25.2055 3.93025C24.8145 4.00075 24.4227 4.06975 24.0315 4.1385L22.4613 4.41325C22.3953 4.42475 22.3287 4.43625 22.2655 4.4565C22.173 4.48625 22.146 4.54425 22.1882 4.63125C22.223 4.70225 22.266 4.77025 22.3125 4.83425C22.637 5.28175 22.9635 5.72825 23.2895 6.17475C23.739 6.7905 24.189 7.40625 24.6388 8.02175C25.0193 8.5425 25.4002 9.06325 25.7812 9.58375C26.0805 9.993 26.38 10.4017 26.6795 10.8108L26.7388 10.8822C27.6005 10.669 28.461 10.4565 29.3363 10.2402L29.3423 10.1058C29.3423 8.30375 29.342 6.502 29.3438 4.70025C29.3438 4.62075 29.3242 4.55675 29.2745 4.49375C29.0557 4.218 28.8415 3.939 28.6252 3.66125L28.5777 3.60275ZM29.2765 12.3333C28.8835 12.4275 28.4893 12.5175 28.0868 12.624C28.1295 12.6997 29.233 14.1895 29.2973 14.26L29.3377 14.2823L29.3423 14.1915V13.564C29.3428 13.2003 29.3438 12.8362 29.3428 12.4725C29.3428 12.428 29.355 12.3807 29.3248 12.3357L29.2765 12.3333ZM3.2325 31.75V27.4667H4.14075V31H5.878V31.75H3.2325ZM9.24425 31.75L8.93375 30.7305H7.37225L7.0615 31.75H6.083L7.59475 27.4492H8.705L10.2227 31.75H9.24425ZM8.71675 29.9688C8.42975 29.045 8.268 28.5225 8.232 28.4013C8.196 28.28 8.17 28.1845 8.15425 28.1143C8.08975 28.3643 7.90525 28.9825 7.6005 29.9688H8.71675ZM11.67 30.1065V31.75H10.7618V27.4667H12.0098C12.5918 27.4667 13.0225 27.5728 13.3018 27.7845C13.581 27.9963 13.7207 28.3183 13.7207 28.7498C13.7207 29.0018 13.6515 29.2258 13.5127 29.422C13.374 29.6183 13.1777 29.772 12.924 29.8835C13.5685 30.8465 13.9885 31.4685 14.1838 31.7498H13.176L12.1535 30.1063L11.67 30.1065ZM11.67 29.3682H11.963C12.25 29.3682 12.462 29.3205 12.5988 29.2248C12.7355 29.129 12.8038 28.9788 12.8038 28.7735C12.8038 28.5705 12.734 28.4258 12.5942 28.34C12.4545 28.2543 12.2382 28.211 11.9452 28.211H11.67V29.3682ZM17.3447 31.75L17.0343 30.7305H15.4727L15.162 31.75H14.1835L15.6952 27.4492H16.8055L18.3232 31.75H17.3447ZM16.8175 29.9688C16.5305 29.045 16.3688 28.5225 16.3328 28.4013C16.2968 28.28 16.2707 28.1845 16.255 28.1143C16.1905 28.3643 16.006 28.9825 15.7013 29.9688H16.8175ZM21.3057 27.4667H22.2227L20.7665 31.75H19.7763L18.3232 27.4667H19.2402L20.046 30.0155C20.091 30.166 20.1372 30.3413 20.1852 30.5415C20.2332 30.7418 20.263 30.8807 20.2745 30.959C20.296 30.7792 20.3692 30.4648 20.4942 30.0158L21.3057 27.4667ZM25.2285 31.75H22.7617V27.4667H25.2285V28.211H23.67V29.1515H25.1203V29.8958H23.67V31H25.2285V31.75ZM26.122 31.75V27.4667H27.0303V31H28.7675V31.75H26.122Z" fill="#FD4F31"/>
</svg>
