<svg width="32" height="32" viewBox="0 0 32 32" fill="none" xmlns="http://www.w3.org/2000/svg">
<path fill-rule="evenodd" clip-rule="evenodd" d="M0.304688 14.039C0.304688 14.2147 0.356438 14.3307 0.385438 14.4435C0.574437 15.1767 0.980687 15.806 1.46269 16.38C2.14919 17.198 2.98994 17.8565 3.85119 18.4757C4.59819 19.0127 5.36044 19.5377 6.11044 20.0707C6.23919 20.1622 6.36094 20.2675 6.50069 20.3797C6.38044 20.4447 6.28044 20.502 6.17644 20.5548C5.18669 21.0568 4.23444 21.6195 3.35669 22.3013C2.82769 22.7123 2.31619 23.149 1.95494 23.7197C1.37369 24.6377 1.16794 25.6157 1.60119 26.66C1.72769 26.965 1.92069 27.2285 2.19294 27.4233C2.28119 27.4863 2.38019 27.5487 2.48344 27.5732C2.74794 27.6355 3.01744 27.6763 3.28519 27.7255L4.04344 27.725C4.88194 27.6503 5.64519 27.363 6.33494 26.887C7.41294 26.143 8.13919 25.1455 8.45144 23.8652C8.67844 22.9347 8.68769 22.0032 8.42019 21.077C8.39544 20.991 8.36419 20.9067 8.33169 20.8235C8.29919 20.7402 8.26094 20.6593 8.21594 20.5555L9.93494 19.567L9.96069 19.589C9.92944 19.6913 9.89619 19.7932 9.86794 19.8965C9.66369 20.6425 9.52794 21.4015 9.57669 22.1758C9.62869 23.0008 9.85894 23.773 10.3419 24.4622C10.7324 25.0197 11.6629 25.0405 12.0779 24.481C12.2252 24.2823 12.3679 24.0745 12.4752 23.8528C12.7554 23.274 13.0149 22.685 13.2827 22.1L13.3294 21.993C13.3102 22.27 13.2877 22.5133 13.2774 22.7568C13.2614 23.137 13.2837 23.515 13.4137 23.8768C13.5249 24.1863 13.7142 24.4175 14.0687 24.4583C14.3112 24.486 14.5044 24.375 14.6827 24.2342C14.9612 24.0145 15.1874 23.743 15.3554 23.4345C15.8307 22.5617 16.3187 21.6942 16.7494 20.7995C17.2154 19.8317 17.6229 18.8357 18.0557 17.8515L18.1272 17.677C18.2294 18.0788 18.3007 18.4722 18.4319 18.8447C18.5844 19.277 18.7732 19.699 18.9787 20.1092C19.0759 20.303 19.0647 20.4287 18.9299 20.5912C18.3659 21.2712 17.8117 21.9595 17.2569 22.647C17.1342 22.7987 17.0119 22.9532 16.9097 23.119C16.8479 23.2197 16.8069 23.3425 16.7897 23.46C16.7564 23.6845 16.8952 23.901 17.1354 23.9527C17.3549 24 17.5887 24.0175 17.8124 24.001C18.5867 23.944 19.2897 23.6723 19.9112 23.2118C20.7164 22.6153 20.9749 21.8013 20.7799 20.8365C20.7272 20.5748 20.6339 20.3203 20.5432 20.068C20.5024 19.9543 20.4997 19.8745 20.5739 19.7685C21.2177 18.8492 21.7677 17.874 22.2792 16.8762C22.2994 16.837 22.3202 16.7978 22.3557 16.7558C22.5214 17.6183 22.7709 18.4495 23.2179 19.2038C22.9899 19.4235 22.7642 19.6228 22.5599 19.8423C22.1102 20.3258 21.7202 20.8507 21.5167 21.491C21.4292 21.767 21.3619 22.0475 21.4009 22.3423C21.4614 22.8 21.8364 23.0975 22.2867 22.9932C23.2502 22.7702 24.0819 22.3162 24.6897 21.512C25.0987 20.9705 25.1359 20.3665 24.9647 19.7337C24.9177 19.5617 24.8619 19.3925 24.8019 19.1952C25.0397 19.1215 25.2714 19.033 25.5112 18.9783C26.7559 18.6943 27.9872 18.7438 29.1867 19.1933C29.8869 19.4558 30.4527 19.895 30.7882 20.586C31.1979 21.4308 30.9714 22.2323 30.1752 22.7663C30.1009 22.816 30.0159 22.8552 29.9544 22.9175C29.9167 22.9557 29.8939 23.0322 29.9032 23.085C29.9084 23.1157 29.9897 23.1542 30.0364 23.1537C30.2982 23.1517 30.5104 23.0145 30.7142 22.8735C31.2247 22.5203 31.5972 22.045 31.6774 21.4193L31.6932 21.3722L31.6739 20.9648C31.6662 20.9413 31.6797 20.918 31.6779 20.9002C31.5694 19.989 31.0827 19.2823 30.3747 18.7283C29.5547 18.087 28.5864 17.823 27.5624 17.7812C26.7279 17.7472 25.9077 17.8712 25.1212 18.157C24.8969 18.2382 24.6747 18.3345 24.4492 18.4252C24.4189 18.3705 24.3864 18.318 24.3597 18.2638C24.1282 17.7898 23.8477 17.3367 23.7857 16.7932C23.7417 16.4072 23.6877 16.0218 23.7794 15.64C23.8677 15.2728 23.9827 14.9118 24.0909 14.5495C24.1467 14.363 24.1074 14.2585 23.9294 14.1745C23.8674 14.1453 23.7999 14.1197 23.7329 14.11C23.2954 14.0465 22.8639 14.0828 22.4402 14.206C22.2902 14.2498 22.1812 14.3338 22.1479 14.4998C22.1289 14.595 22.0902 14.6862 22.0632 14.7802C21.9524 15.171 21.8739 15.5692 21.6949 15.9415C21.2464 16.8752 20.7344 17.7738 20.2104 18.6658C20.1537 18.762 20.0939 18.8565 20.0224 18.9732C19.8384 18.5882 19.6422 18.2427 19.5827 17.8377C19.5154 17.3797 19.4624 16.9225 19.5764 16.468C19.6612 16.129 19.7719 15.7963 19.8739 15.4618C19.9222 15.3028 19.8999 15.2192 19.7559 15.1355C19.6832 15.0932 19.6009 15.0557 19.5189 15.0435C19.0652 14.9762 18.6182 15.0115 18.1804 15.153C18.0447 15.197 17.9734 15.2848 17.9319 15.4248C17.8099 15.8378 17.7059 16.2607 17.5347 16.6535C16.8412 18.2435 16.1277 19.8252 15.4149 21.4067C15.2662 21.737 15.0919 22.0558 14.9242 22.3773C14.8817 22.4588 14.8197 22.5305 14.7667 22.607C14.7242 22.5568 14.7077 22.5222 14.7079 22.4877C14.7092 22.2845 14.6849 22.0752 14.7237 21.8787C14.8409 21.2842 14.9759 20.693 15.1182 20.104C15.2357 19.6175 15.3724 19.1355 15.5027 18.6523C15.5464 18.4905 15.5472 18.3393 15.4309 18.2033C15.2357 17.9755 14.8277 17.9255 14.5857 18.101L14.4787 18.1615L14.4994 17.989C14.5504 17.6193 14.5607 17.2507 14.4592 16.8865C14.3327 16.4325 14.0087 16.1712 13.5377 16.1857C13.3182 16.1925 13.0877 16.23 12.8844 16.31C12.0297 16.645 11.3724 17.2382 10.8129 17.952C10.7622 18.0167 10.6952 18.0757 10.6237 18.1155C9.90044 18.5165 9.17494 18.9125 8.44969 19.31L7.64244 19.7523C7.42594 19.5458 7.22919 19.3315 7.00594 19.1497C6.32419 18.5937 5.63144 18.0515 4.94494 17.5018C4.33644 17.0145 3.74694 16.507 3.29594 15.8617C2.96044 15.3817 2.74419 14.8565 2.72344 14.263C2.69719 13.5067 2.91169 12.8157 3.29669 12.1725C3.78919 11.3495 4.46094 10.689 5.19944 10.0907C5.98069 9.45825 6.82569 8.92125 7.70144 8.431C8.92669 7.74525 10.1869 7.13825 11.5382 6.7375C12.9237 6.3265 14.3294 6.09125 15.7794 6.25525C16.3494 6.31975 16.9029 6.45025 17.4112 6.729C17.8004 6.94225 18.1197 7.2215 18.2682 7.658C18.4147 8.0875 18.4102 8.52275 18.3087 8.959C18.1024 9.8425 17.6187 10.5708 17.0099 11.2215C16.0114 12.2883 14.7934 13.0145 13.4222 13.4943C12.6309 13.771 11.8169 13.9448 10.9809 14.015C10.2987 14.0723 9.63069 14.0117 8.98469 13.7745C8.55694 13.6172 8.18444 13.3768 7.88494 13.0278C7.83144 12.9653 7.76294 12.8975 7.66319 12.956C7.56544 13.0135 7.54819 13.1065 7.58094 13.2008C7.63569 13.3573 7.68619 13.5202 7.77144 13.6602C7.98569 14.0115 8.29819 14.2662 8.64219 14.4847C9.30294 14.905 10.0414 15.0463 10.8072 15.079C11.9692 15.1293 13.1029 14.9558 14.2207 14.644C15.8164 14.199 17.2039 13.413 18.3167 12.173C19.2432 11.1405 19.9049 9.97525 20.0467 8.56825C20.1159 7.8815 20.0422 7.20875 19.7207 6.58225C19.3719 5.9035 18.8174 5.39875 18.1544 5.051C17.1889 4.54475 16.1469 4.25 15.0714 4.25H13.9939C12.6914 4.25 11.4322 4.62325 10.2082 5.0685C9.28169 5.40575 8.37319 5.80375 7.49119 6.24425C5.57044 7.204 3.78169 8.36125 2.31244 9.9525C1.58044 10.7453 0.960687 11.62 0.604188 12.65C0.499938 12.9515 0.400937 13.2748 0.326438 13.5865M7.28619 22.5898C7.20294 23.7045 6.69769 24.6083 5.87194 25.3403C5.40744 25.7518 4.87469 26.0448 4.25419 26.1478C4.02919 26.185 3.79894 26.194 3.58069 26.1007C3.26944 25.9677 3.19969 25.6915 3.19369 25.3972C3.18444 24.9282 3.34869 24.5042 3.57394 24.1007C3.86794 23.5747 4.29894 23.1737 4.75919 22.7992C5.48419 22.209 6.27069 21.7095 7.07619 21.238L7.13694 21.213C7.26144 21.673 7.32069 22.1273 7.28619 22.5898ZM13.5757 17.745C13.5169 18.101 13.4434 18.4572 13.3394 18.8022C12.9799 19.9965 12.5182 21.1537 12.0189 22.2955C11.9267 22.5067 11.7924 22.6995 11.6757 22.8997C11.6577 22.9307 11.6309 22.9575 11.6049 22.9832C11.4604 23.126 11.3234 23.1185 11.2504 22.9317C11.1654 22.7147 11.1132 22.4825 11.0682 22.2528C11.0379 22.0985 11.0452 21.9365 11.0357 21.7785C11.0454 20.655 11.3882 19.634 11.9697 18.6835C12.2094 18.2915 12.4704 17.918 12.8692 17.67C12.9917 17.5938 13.1292 17.5325 13.2679 17.4935C13.4804 17.4337 13.6109 17.532 13.5757 17.745ZM17.8667 23.212L19.4089 21.4112C19.4732 22.08 18.3364 23.415 17.8667 23.212ZM22.7924 22.0002C22.6834 22.0627 22.5647 22.1078 22.4529 22.1655C22.3507 22.2185 22.3169 22.165 22.3139 22.077C22.3119 22.0172 22.3207 21.9547 22.3372 21.8967C22.5454 21.1622 22.9287 20.5352 23.4989 20.0252L23.5389 20.0047C23.8102 20.7635 23.4967 21.5967 22.7924 22.0002Z" fill="#CB6699"/>
</svg>
