<svg width="32" height="32" viewBox="0 0 32 32" fill="none" xmlns="http://www.w3.org/2000/svg">
<path fill-rule="evenodd" clip-rule="evenodd" d="M20.5319 18.8006C20.4001 18.8971 20.3064 18.9733 20.2054 19.0381C19.7861 19.3086 19.3711 19.5863 18.9416 19.8396C18.6696 20.0001 18.3629 19.9863 18.0726 19.8853C17.7914 19.7878 17.5114 19.6778 17.2486 19.5393C16.8274 19.3171 16.6939 18.8958 16.5631 18.4746C16.3439 17.7688 16.6406 17.1648 16.9216 16.5561C16.9736 16.4446 17.0446 16.3421 17.1026 16.2328C17.1854 16.0766 17.1389 15.9948 16.9599 16.0058C16.8591 16.0118 16.7519 16.0396 16.6616 16.0853C15.8754 16.4851 15.1911 17.0108 14.6684 17.7298C14.3089 18.2251 14.0879 18.7818 13.9406 19.3736C13.8511 19.7333 13.5839 19.9248 13.3004 19.8621C12.9014 19.7736 12.6176 19.1808 12.8004 18.8171C12.8294 18.7591 12.8551 18.6973 12.8961 18.6481C13.3509 18.1013 13.5104 17.4251 13.7176 16.7708C13.8389 16.3876 13.9581 16.0031 14.0619 15.6148C14.1124 15.4256 14.1744 15.2326 14.0744 15.0291C14.0129 14.9028 14.1149 14.7856 14.2174 14.7741C14.4496 14.7478 14.7044 14.7131 14.9179 14.7816C15.1524 14.8571 15.1719 15.1376 15.2114 15.3578C15.2349 15.4886 15.2159 15.6271 15.2159 15.8068C15.3101 15.7636 15.3776 15.7383 15.4399 15.7028C15.7946 15.5008 16.1394 15.2798 16.5044 15.0988C16.8524 14.9263 17.2084 15.0198 17.5354 15.1811C17.7004 15.2626 17.7856 15.2533 17.9134 15.1103C18.1971 14.7921 18.4924 14.4786 18.8181 14.2048C19.0884 13.9781 19.4404 13.9108 19.7924 13.9361C20.0231 13.9523 20.2549 13.9951 20.4791 14.0521C20.7411 14.1193 20.9069 14.3548 20.9311 14.6206C20.9796 15.1611 20.7639 15.6213 20.4551 16.0278C19.7206 16.9956 18.8884 17.8666 17.8349 18.4988C17.6894 18.5863 17.6781 18.6906 17.7454 18.8261C17.8484 19.0321 18.0969 19.1206 18.3249 19.0503C18.9689 18.8523 19.4674 18.4241 19.9819 18.0191C20.2566 17.8028 20.5499 17.6053 20.7966 17.3608C20.9354 17.2236 21.0019 17.0108 21.0916 16.8271C21.4334 16.1281 21.7519 15.4168 22.1149 14.7291C22.4961 14.0056 22.9229 13.3063 23.3209 12.5916C23.4306 12.3941 23.5109 12.1798 23.6004 11.9716C23.7311 11.6688 23.9359 11.4818 24.2889 11.5136C24.3534 11.5193 24.4191 11.5123 24.4844 11.5126C24.9434 11.5133 25.1936 11.9091 24.9681 12.3136C24.7661 12.6756 24.5316 13.0193 24.3039 13.3663C23.6384 14.3808 22.9516 15.3836 22.4334 16.4846C22.1876 17.0061 21.9644 17.5411 21.7764 18.0856C21.6854 18.3488 21.6856 18.6473 21.6696 18.9313C21.6596 19.1171 21.7899 19.1788 21.9371 19.0551C22.1799 18.8508 22.3989 18.6191 22.6369 18.4093C22.8401 18.2303 23.0686 18.0796 23.2614 17.8911C23.3611 17.7933 23.4261 17.6483 23.4751 17.5133C23.8319 16.5348 24.2891 15.6046 24.7906 14.6941C25.1509 14.0403 25.5244 13.3933 25.8836 12.7386C26.0536 12.4286 26.1949 12.1026 26.3679 11.7938C26.4754 11.6021 26.6461 11.4891 26.8844 11.5141C26.9619 11.5223 27.0414 11.5206 27.1189 11.5118C27.6489 11.4511 27.8149 11.9856 27.6241 12.3151C27.4649 12.5896 27.2919 12.8561 27.1184 13.1216C26.3469 14.3003 25.5416 15.4601 24.9599 16.7493C24.7311 17.2558 24.5451 17.7838 24.3709 18.3118C24.3079 18.5031 24.3256 18.7238 24.3259 18.9313C24.3259 19.1188 24.4436 19.1748 24.5926 19.0496C24.8306 18.8496 25.0496 18.6276 25.2809 18.4186L25.8351 17.9353C25.8809 17.8943 25.9344 17.8381 25.9421 17.7828C26.0871 16.7701 26.5834 15.9301 27.2264 15.1638C27.4344 14.9156 27.6426 14.6628 27.8814 14.4458C28.3624 14.0093 28.9864 14.1111 29.3481 14.4558C29.4501 14.5531 29.5074 14.7036 29.5669 14.8376C29.6909 15.1138 29.7809 15.1773 30.0881 15.1763C30.4519 15.1751 30.8161 15.1618 31.1786 15.1816C31.3209 15.1893 31.4706 15.2526 31.5969 15.3253C31.7561 15.4176 31.7416 15.5803 31.5779 15.6551C31.1154 15.8661 30.6341 16.0141 30.1216 16.0263C29.9511 16.0306 29.8774 16.0881 29.8334 16.2646C29.5544 17.3838 29.1654 18.4543 28.3199 19.2888C28.1429 19.4636 27.9394 19.6288 27.7179 19.7363C27.2994 19.9393 26.9344 19.7293 26.5939 19.4993C26.4504 19.4018 26.3126 19.2863 26.1994 19.1553C26.1004 19.0416 26.0451 19.0526 25.9551 19.1538C25.6956 19.4466 25.4211 19.7238 25.0524 19.8808C24.8299 19.9753 24.6134 20.0326 24.3579 19.9563C23.9744 19.8413 23.6274 19.6851 23.3791 19.3613C23.2866 19.2401 23.2239 19.2526 23.1151 19.3476C22.9109 19.5258 22.7036 19.7088 22.4711 19.8446C21.9959 20.1218 21.5396 19.9648 21.1116 19.7081C20.7876 19.5148 20.5586 19.2408 20.5319 18.8006ZM26.9119 18.2691C26.9321 18.3598 26.9431 18.4933 26.9929 18.6103C27.0359 18.7103 27.1124 18.8508 27.1936 18.8656C27.2709 18.8798 27.4016 18.7731 27.4601 18.6866C27.7274 18.2891 27.9854 17.8843 28.2331 17.4741C28.5614 16.9318 28.7274 16.3338 28.7861 15.7068C28.7969 15.5958 28.7729 15.4693 28.7266 15.3673C28.6071 15.1066 28.4861 15.0893 28.3281 15.3246C28.0066 15.8021 27.6881 16.2831 27.4006 16.7821C27.1436 17.2278 26.9746 17.7128 26.9119 18.2691ZM19.7986 14.9738C19.8119 14.8298 19.7461 14.7853 19.6224 14.8183C19.5864 14.8278 19.5529 14.8536 19.5234 14.8778C18.7786 15.4891 18.2031 16.2298 17.8201 17.1158C17.8031 17.1551 17.8259 17.2121 17.8301 17.2608C17.8769 17.2503 17.9374 17.2553 17.9689 17.2273C18.1394 17.0771 18.3034 16.9201 18.4679 16.7638C18.9786 16.2786 19.4344 15.7511 19.7446 15.1111C19.7671 15.0643 19.7826 15.0146 19.7986 14.9738ZM11.9339 13.9608C11.8066 13.9473 11.7144 13.9351 11.6216 13.9283C11.3506 13.9083 11.0771 13.9056 10.8089 13.8668C10.5919 13.8353 10.4989 13.6906 10.4989 13.4641L10.5006 13.3471C10.5119 12.9493 10.6574 12.8898 11.0524 12.9468C11.4581 13.0053 11.8821 12.9881 12.2934 12.9498C12.8344 12.8998 13.3699 12.7881 13.9094 12.7198C14.2371 12.6786 14.5684 12.6633 14.8981 12.6463C15.3299 12.6238 15.6759 12.8311 15.9789 13.1033C16.0544 13.1708 16.0826 13.3398 16.0646 13.4516C16.0299 13.6698 15.5229 13.8963 15.3179 13.6916C15.1691 13.5433 14.9736 13.4943 14.7586 13.5198C14.3526 13.5683 13.9451 13.6073 13.5386 13.6538C13.4351 13.6656 13.3956 13.7196 13.3589 13.8343C13.2889 14.0533 13.1621 14.2553 13.0516 14.4603C12.5746 15.3478 12.1524 16.2578 11.8919 17.2343C11.7314 17.8348 11.5869 18.4393 11.4461 19.0448C11.4159 19.1753 11.4219 19.3176 11.4289 19.4533C11.4561 19.9708 11.1734 20.0486 10.7521 19.9118C10.6294 19.8723 10.5149 19.8061 10.3969 19.7518C10.2606 19.6883 10.1706 19.5798 10.1876 19.4321C10.2276 19.0856 10.2579 18.7341 10.3444 18.3983C10.4986 17.7961 10.6749 17.1983 10.8729 16.6091C11.0561 16.0621 11.2744 15.5263 11.4881 14.9896C11.6191 14.6598 11.7699 14.3376 11.9339 13.9608Z" fill="#23719F"/>
<path d="M9 13.007C9 12.451 8.549 12 7.99275 12H1.75725C1.201 12 0.75 12.451 0.75 13.007V19.2428C0.75 19.799 1.201 20.25 1.75725 20.25H7.9925C8.549 20.25 9 19.799 9 19.243V13.007ZM4.75 18.2507C4.75 18.488 4.2215 18.75 3.961 18.75H2.159C1.89875 18.75 1.75 18.488 1.75 18.2507V13.1862C1.75 12.949 1.89875 13 2.159 13H3.961C4.2215 13 4.75 12.949 4.75 13.1862V18.2507ZM8.25 13.8792V16C8.25 16.2528 7.9295 16.5 7.67625 16.5H5.85875C5.6055 16.5 5.5 16.2528 5.5 15.9998V13.1993C5.5 12.9463 5.6055 13 5.859 13H7.6765C7.9295 13 8.25 12.9463 8.25 13.1993V13.8792Z" fill="#23719F"/>
</svg>
