<svg width="32" height="32" viewBox="0 0 32 32" fill="none" xmlns="http://www.w3.org/2000/svg">
<g clip-path="url(#clip0_826_2741)">
<path d="M27.2 0H4.8C2.14903 0 0 2.14903 0 4.8V27.2C0 29.851 2.14903 32 4.8 32H27.2C29.851 32 32 29.851 32 27.2V4.8C32 2.14903 29.851 0 27.2 0Z" fill="#2D8CFF"/>
<path d="M26.75 22.3125C27.25 22.4375 27.6875 22.1875 27.9375 21.8125C28.0625 21.625 28.0625 21.3125 28.0625 20.625V11.1875C28.0625 10.5 28.0625 10.25 27.9375 10C27.75 9.5 27.25 9.3125 26.75 9.5C25.4375 10.375 22.5625 12.9375 22.5 14C22.45 14.1875 22.45 14.5 22.45 14.9375V17.3125C22.45 17.8125 22.45 18 22.5 18.25C22.5625 18.75 22.75 19.1875 23 19.4375C23.75 20 26.25 22.25 26.8125 22.25L26.75 22.3125ZM4 11.6875C4 10.75 4 10.25 4.1875 10C4.3125 9.75 4.6875 9.5 4.875 9.3125C5.125 9.125 5.5625 9.125 6.5625 9.125H14.625C17 9.125 18.1875 9.125 19.125 9.625C19.8125 10.125 20.5625 10.5625 21 11.5C21.5 12.4375 21.5 13.625 21.5 16V20.25C21.5 21.1875 21.5 21.6875 21.3125 21.9375C21.1875 22.1875 20.8125 22.4375 20.625 22.625C20.375 22.8125 19.9375 22.8125 18.9375 22.8125H10.875C8.5 22.8125 7.3125 22.8125 6.375 22.3125C5.6875 21.8125 4.9375 21.375 4.5 20.4375C4 19.5 4 18.3125 4 15.9375V11.6875Z" fill="white"/>
</g>
<defs>
<clipPath id="clip0_826_2741">
<rect width="32" height="32" fill="white"/>
</clipPath>
</defs>
</svg>
